<svg width="40" height="40" viewBox="0 0 40 40" fill="none" xmlns="http://www.w3.org/2000/svg">
<g clip-path="url(#clip0_6077_411040)">
<rect y="0.188843" width="39.4101" height="39.4101" rx="13.3994" fill="#0052FF"/>
<path fill-rule="evenodd" clip-rule="evenodd" d="M5.84961 19.8939C5.84961 27.5458 12.0527 33.749 19.7047 33.749C27.3567 33.749 33.5598 27.5458 33.5598 19.8939C33.5598 12.2419 27.3567 6.03876 19.7047 6.03876C12.0527 6.03876 5.84961 12.2419 5.84961 19.8939ZM16.164 15.4294C15.6538 15.4294 15.2403 15.843 15.2403 16.3531V23.4346C15.2403 23.9447 15.6538 24.3583 16.164 24.3583H23.2455C23.7556 24.3583 24.1691 23.9447 24.1691 23.4346V16.3531C24.1691 15.843 23.7556 15.4294 23.2455 15.4294H16.164Z" fill="white"/>
</g>
<defs>
<clipPath id="clip0_6077_411040">
<rect width="39.4101" height="39.4101" fill="white" transform="translate(0 0.188843)"/>
</clipPath>
</defs>
</svg>
