<svg width="41" height="41" viewBox="0 0 41 41" fill="none" xmlns="http://www.w3.org/2000/svg">
<g clip-path="url(#clip0_2223_391)">
<path d="M27.0012 20.1578C27.0012 16.5197 24.0519 13.5703 20.4137 13.5703C16.7755 13.5703 13.8262 16.5197 13.8262 20.1578C13.8262 23.796 16.7755 26.7454 20.4137 26.7454C24.0519 26.7454 27.0012 23.796 27.0012 20.1578Z" fill="white"/>
<path fill-rule="evenodd" clip-rule="evenodd" d="M3.1624 13.521C-0.50205 17.1855 -0.50205 23.1269 3.1624 26.7915L13.7788 37.4079C17.4434 41.0723 23.3847 41.0723 27.0493 37.4079L37.6657 26.7915C41.3301 23.1269 41.3301 17.1855 37.6657 13.521L27.0493 2.90459C23.3847 -0.759863 17.4434 -0.759863 13.7788 2.90459L3.1624 13.521ZM25.0587 24.8009C27.6239 22.2357 27.6239 18.0767 25.0587 15.5116C22.4936 12.9464 18.3345 12.9464 15.7694 15.5116C13.2042 18.0767 13.2042 22.2357 15.7694 24.8009C18.3345 27.3661 22.4936 27.3661 25.0587 24.8009Z" fill="#3C4D6D"/>
</g>
<defs>
<clipPath id="clip0_2223_391">
<rect width="40" height="40" fill="white" transform="translate(0.414062 0.15625)"/>
</clipPath>
</defs>
</svg>
