<svg width="40" height="40" viewBox="0 0 40 40" fill="none" xmlns="http://www.w3.org/2000/svg">
<g clip-path="url(#clip0_6077_411035)">
<rect y="0.294983" width="39.4101" height="39.4101" rx="13.3994" fill="url(#paint0_radial_6077_411035)"/>
<path d="M12.3736 15.5144C16.3377 11.6427 22.7727 11.6427 26.7368 15.5144L27.214 15.9839C27.4141 16.1764 27.4141 16.4919 27.214 16.6844L25.5822 18.2777C25.4821 18.3778 25.3205 18.3778 25.2204 18.2777L24.5661 17.6388C21.7951 14.9371 17.3153 14.9371 14.5443 17.6388L13.8438 18.3239C13.7438 18.424 13.5821 18.424 13.482 18.3239L11.8502 16.7306C11.6501 16.5381 11.6501 16.2225 11.8502 16.0301L12.3736 15.5144ZM30.1159 18.8088L31.5706 20.2251C31.7708 20.4176 31.7708 20.7331 31.5706 20.9256L25.0203 27.322C24.8201 27.5145 24.4968 27.5145 24.3044 27.322L19.6553 22.7806C19.6091 22.7344 19.5244 22.7344 19.4782 22.7806L14.8291 27.322C14.6289 27.5145 14.3057 27.5145 14.1132 27.322L7.53975 20.9256C7.33962 20.7331 7.33962 20.4176 7.53975 20.2251L8.99453 18.8088C9.19466 18.6164 9.51795 18.6164 9.71038 18.8088L14.3595 23.3502C14.4057 23.3964 14.4904 23.3964 14.5366 23.3502L19.1857 18.8088C19.3859 18.6164 19.7091 18.6164 19.9016 18.8088L24.5507 23.3502C24.5969 23.3964 24.6816 23.3964 24.7278 23.3502L29.3769 18.8088C29.5924 18.6164 29.9157 18.6164 30.1159 18.8088Z" fill="white"/>
</g>
<defs>
<radialGradient id="paint0_radial_6077_411035" cx="0" cy="0" r="1" gradientUnits="userSpaceOnUse" gradientTransform="translate(0.000122149 20.0006) scale(39.4101)">
<stop stop-color="#5D9DF6"/>
<stop offset="1" stop-color="#006FFF"/>
</radialGradient>
<clipPath id="clip0_6077_411035">
<rect width="39.4101" height="39.4101" fill="white" transform="translate(0 0.294983)"/>
</clipPath>
</defs>
</svg>
