<svg width="21" height="21" viewBox="0 0 21 21" fill="none" xmlns="http://www.w3.org/2000/svg">
<path fill-rule="evenodd" clip-rule="evenodd" d="M10.5229 2.34171C10.656 2.22226 10.832 2.15965 11.0122 2.16768C14.8212 2.2817 18.0046 5.04683 18.5815 8.74252C18.5852 8.76458 18.5852 8.78709 18.5815 8.80915C18.5939 8.98402 18.5348 9.15653 18.4173 9.28853C18.2997 9.42054 18.1334 9.50115 17.9551 9.51254L11.5556 9.93458C11.3439 9.95334 11.134 9.8837 10.9775 9.74276C10.8209 9.60182 10.7321 9.40265 10.733 9.19417L10.3028 2.90809V2.80443C10.3106 2.62764 10.3898 2.46116 10.5229 2.34171ZM10.0839 11.5782L15.6307 11.2229L15.6684 11.2377C15.9066 11.2416 16.1334 11.3381 16.299 11.5062C16.4646 11.6742 16.5554 11.8999 16.5513 12.1336C16.3328 15.3186 13.9976 17.9799 10.8198 18.6655C7.64196 19.3511 4.38429 17.8965 2.82397 15.0952C2.36516 14.2884 2.07523 13.3998 1.97119 12.4816C1.93084 12.2095 1.91317 11.9346 1.91837 11.6597C1.92888 8.27284 4.34021 5.34951 7.7142 4.63321C8.12265 4.55676 8.53216 4.76069 8.71036 5.12928C8.75473 5.19617 8.79023 5.26832 8.81602 5.344C8.87926 6.32029 8.94487 7.28734 9.01019 8.25031C9.06179 9.01086 9.11321 9.76886 9.16316 10.5269C9.16059 10.7054 9.18865 10.8831 9.24618 11.0526C9.3816 11.3859 9.71862 11.5974 10.0839 11.5782Z" fill="#FD2254"/>
</svg>
