<svg width="20" height="21" viewBox="0 0 20 21" fill="none" xmlns="http://www.w3.org/2000/svg">
<path fill-rule="evenodd" clip-rule="evenodd" d="M7.43835 14.5335H11.9268C12.2651 14.5335 12.5456 14.2502 12.5456 13.9085C12.5456 13.5669 12.2651 13.2919 11.9268 13.2919H7.43835C7.10006 13.2919 6.81953 13.5669 6.81953 13.9085C6.81953 14.2502 7.10006 14.5335 7.43835 14.5335ZM10.2271 9.1252H7.43835C7.10006 9.1252 6.81953 9.40853 6.81953 9.7502C6.81953 10.0919 7.10006 10.3669 7.43835 10.3669H10.2271C10.5654 10.3669 10.8459 10.0919 10.8459 9.7502C10.8459 9.40853 10.5654 9.1252 10.2271 9.1252ZM16.1147 8.39618C16.3086 8.39394 16.5198 8.3915 16.7116 8.3915C16.9179 8.3915 17.0829 8.55817 17.0829 8.7665V15.4665C17.0829 17.5332 15.4245 19.2082 13.3783 19.2082H6.81065C4.66543 19.2082 2.91626 17.4498 2.91626 15.2832V6.29984C2.91626 4.23317 4.58293 2.5415 6.63738 2.5415H11.0433C11.2578 2.5415 11.4229 2.7165 11.4229 2.92484V5.60817C11.4229 7.13317 12.6687 8.38317 14.1786 8.3915C14.5313 8.3915 14.8422 8.39414 15.1143 8.39645C15.326 8.39824 15.5142 8.39984 15.6803 8.39984C15.7977 8.39984 15.95 8.39808 16.1147 8.39618ZM16.3427 7.18001C15.6645 7.18251 14.865 7.18001 14.2899 7.17418C13.3774 7.17418 12.6257 6.41501 12.6257 5.49335V3.29668C12.6257 2.93751 13.0572 2.75918 13.3039 3.01834C13.751 3.48785 14.3656 4.13344 14.9771 4.77586C15.5856 5.41507 16.1912 6.05115 16.6257 6.50751C16.8666 6.76001 16.6901 7.17918 16.3427 7.18001Z" fill="#FF6A00"/>
</svg>
