<svg width="20" height="20" viewBox="0 0 20 20" fill="none" xmlns="http://www.w3.org/2000/svg">
<path fill-rule="evenodd" clip-rule="evenodd" d="M6.28856 2.73112C6.42705 2.83109 6.65039 3.06072 6.65039 3.06072C7.51741 3.87333 8.82329 5.89446 9.24266 6.91988C9.25144 6.91988 9.50013 7.52958 9.50989 7.81959V7.85819C9.50989 8.3026 9.26119 8.71831 8.86133 8.93111C8.69649 9.01885 8.29555 9.10044 8.10211 9.1398C8.03805 9.15284 7.99674 9.16125 7.99431 9.16371C7.4228 9.25081 6.54603 9.30822 5.58344 9.30822C4.57306 9.30822 3.65825 9.25081 3.09552 9.14391C3.08577 9.14391 2.5718 9.03801 2.40015 8.96971C2.15243 8.86381 1.94275 8.66981 1.80914 8.4283C1.71356 8.23529 1.66675 8.0314 1.66675 7.81959C1.67553 7.59689 1.81889 7.18118 1.88521 7.01687C2.30458 5.93306 3.67678 3.86343 4.51552 3.07062C4.60264 2.98219 4.70179 2.88956 4.77079 2.82511C4.8076 2.79072 4.83583 2.76435 4.84906 2.75092C5.05874 2.58661 5.31622 2.49951 5.59319 2.49951C5.83994 2.49951 6.08766 2.57671 6.28856 2.73112ZM15.191 8.46782C15.191 8.90433 14.8429 9.25769 14.4128 9.25769C13.9827 9.25769 13.6345 8.90433 13.6345 8.46782L13.4199 4.65214C13.4199 4.09587 13.8647 3.64551 14.4128 3.64551C14.9609 3.64551 15.4046 4.09587 15.4046 4.65214L15.191 8.46782ZM17.5998 11.0292C17.8475 11.1361 18.0572 11.3291 18.1908 11.5706C18.2864 11.7636 18.3332 11.9675 18.3332 12.1803C18.3244 12.402 18.1811 12.8187 18.1138 12.983C17.6954 14.0659 16.3222 16.1355 15.4844 16.9294C15.3988 17.0157 15.3015 17.1065 15.2326 17.1707C15.1941 17.2066 15.1645 17.2342 15.1509 17.2481C14.9402 17.4124 14.6837 17.4995 14.4077 17.4995C14.159 17.4995 13.9113 17.4223 13.7114 17.2669C13.5729 17.1679 13.3496 16.9383 13.3496 16.9383C12.4816 16.1266 11.1767 14.1045 10.7573 13.079C10.7475 13.079 10.4998 12.4703 10.4901 12.1803V12.1417C10.4901 11.6963 10.7378 11.2806 11.1386 11.0678C11.3031 10.9809 11.7028 10.8991 11.8967 10.8594L11.8967 10.8594C11.9614 10.8462 12.0032 10.8376 12.0056 10.8351C12.5772 10.748 13.4539 10.6906 14.4165 10.6906C15.4269 10.6906 16.3417 10.748 16.9044 10.8549C16.9132 10.8549 17.4282 10.9609 17.5998 11.0292ZM5.58744 10.7418C5.15734 10.7418 4.80917 11.0952 4.80917 11.5317L4.59461 15.3473C4.59461 15.9035 5.03934 16.3539 5.58744 16.3539C6.13554 16.3539 6.57929 15.9035 6.57929 15.3473L6.36571 11.5317C6.36571 11.0952 6.01753 10.7418 5.58744 10.7418Z" fill="#551FFF"/>
</svg>
