<svg width="40" height="40" viewBox="0 0 40 40" fill="none" xmlns="http://www.w3.org/2000/svg">
<g clip-path="url(#clip0_6077_411028)">
<path d="M37.447 1.94055L22.0693 13.3617L24.913 6.62339L37.447 1.94055Z" fill="#E2761B" stroke="#E2761B" stroke-width="1.23156" stroke-linecap="round" stroke-linejoin="round"/>
<path d="M1.94629 1.94055L17.2003 13.4699L14.4957 6.6234L1.94629 1.94055Z" fill="#E4761B" stroke="#E4761B" stroke-width="1.23156" stroke-linecap="round" stroke-linejoin="round"/>
<path d="M31.9149 28.4149L27.8193 34.6896L36.5823 37.1005L39.1014 28.5539L31.9149 28.4149Z" fill="#E4761B" stroke="#E4761B" stroke-width="1.23156" stroke-linecap="round" stroke-linejoin="round"/>
<path d="M0.324219 28.5539L2.82792 37.1005L11.5909 34.6896L7.49531 28.4149L0.324219 28.5539Z" fill="#E4761B" stroke="#E4761B" stroke-width="1.23156" stroke-linecap="round" stroke-linejoin="round"/>
<path d="M11.0962 17.8127L8.6543 21.5065L17.3554 21.8928L17.0463 12.5426L11.0962 17.8127Z" fill="#E4761B" stroke="#E4761B" stroke-width="1.23156" stroke-linecap="round" stroke-linejoin="round"/>
<path d="M28.2977 17.8128L22.2702 12.4344L22.0693 21.8929L30.755 21.5065L28.2977 17.8128Z" fill="#E4761B" stroke="#E4761B" stroke-width="1.23156" stroke-linecap="round" stroke-linejoin="round"/>
<path d="M11.5908 34.6895L16.8146 32.1394L12.3017 28.6157L11.5908 34.6895Z" fill="#E4761B" stroke="#E4761B" stroke-width="1.23156" stroke-linecap="round" stroke-linejoin="round"/>
<path d="M22.5791 32.1394L27.8183 34.6895L27.0919 28.6157L22.5791 32.1394Z" fill="#E4761B" stroke="#E4761B" stroke-width="1.23156" stroke-linecap="round" stroke-linejoin="round"/>
<path d="M27.8183 34.6895L22.5791 32.1395L22.9964 35.555L22.95 36.9923L27.8183 34.6895Z" fill="#D7C1B3" stroke="#D7C1B3" stroke-width="1.23156" stroke-linecap="round" stroke-linejoin="round"/>
<path d="M11.5918 34.6895L16.4601 36.9923L16.4292 35.555L16.8156 32.1395L11.5918 34.6895Z" fill="#D7C1B3" stroke="#D7C1B3" stroke-width="1.23156" stroke-linecap="round" stroke-linejoin="round"/>
<path d="M16.537 26.3593L12.1787 25.0766L15.2542 23.6702L16.537 26.3593Z" fill="#233447" stroke="#233447" stroke-width="1.23156" stroke-linecap="round" stroke-linejoin="round"/>
<path d="M22.8574 26.3593L24.1402 23.6702L27.2312 25.0766L22.8574 26.3593Z" fill="#233447" stroke="#233447" stroke-width="1.23156" stroke-linecap="round" stroke-linejoin="round"/>
<path d="M11.5907 34.6895L12.3325 28.4148L7.49512 28.5539L11.5907 34.6895Z" fill="#CD6116" stroke="#CD6116" stroke-width="1.23156" stroke-linecap="round" stroke-linejoin="round"/>
<path d="M27.0762 28.4148L27.818 34.6895L31.9136 28.5539L27.0762 28.4148Z" fill="#CD6116" stroke="#CD6116" stroke-width="1.23156" stroke-linecap="round" stroke-linejoin="round"/>
<path d="M30.755 21.5065L22.0693 21.8928L22.873 26.3593L24.1558 23.6702L27.2467 25.0766L30.755 21.5065Z" fill="#CD6116" stroke="#CD6116" stroke-width="1.23156" stroke-linecap="round" stroke-linejoin="round"/>
<path d="M12.178 25.0766L15.269 23.6702L16.5363 26.3593L17.3554 21.8928L8.6543 21.5065L12.178 25.0766Z" fill="#CD6116" stroke="#CD6116" stroke-width="1.23156" stroke-linecap="round" stroke-linejoin="round"/>
<path d="M8.65527 21.5065L12.3026 28.6157L12.179 25.0766L8.65527 21.5065Z" fill="#E4751F" stroke="#E4751F" stroke-width="1.23156" stroke-linecap="round" stroke-linejoin="round"/>
<path d="M27.2473 25.0766L27.0928 28.6157L30.7556 21.5065L27.2473 25.0766Z" fill="#E4751F" stroke="#E4751F" stroke-width="1.23156" stroke-linecap="round" stroke-linejoin="round"/>
<path d="M17.3572 21.8928L16.5381 26.3593L17.5581 31.6294L17.7899 24.6902L17.3572 21.8928Z" fill="#E4751F" stroke="#E4751F" stroke-width="1.23156" stroke-linecap="round" stroke-linejoin="round"/>
<path d="M22.0706 21.8928L21.6533 24.6747L21.8388 31.6294L22.8743 26.3593L22.0706 21.8928Z" fill="#E4751F" stroke="#E4751F" stroke-width="1.23156" stroke-linecap="round" stroke-linejoin="round"/>
<path d="M22.8734 26.3594L21.8379 31.6295L22.5797 32.1395L27.0926 28.6158L27.2471 25.0766L22.8734 26.3594Z" fill="#F6851B" stroke="#F6851B" stroke-width="1.23156" stroke-linecap="round" stroke-linejoin="round"/>
<path d="M12.1787 25.0766L12.3024 28.6158L16.8152 32.1395L17.557 31.6295L16.537 26.3594L12.1787 25.0766Z" fill="#F6851B" stroke="#F6851B" stroke-width="1.23156" stroke-linecap="round" stroke-linejoin="round"/>
<path d="M22.9512 36.9923L22.9975 35.555L22.6112 35.215H16.7847L16.4292 35.555L16.4601 36.9923L11.5918 34.6895L13.2918 36.0805L16.7383 38.476H22.6575L26.1194 36.0805L27.8195 34.6895L22.9512 36.9923Z" fill="#C0AD9E" stroke="#C0AD9E" stroke-width="1.23156" stroke-linecap="round" stroke-linejoin="round"/>
<path d="M22.5798 32.1395L21.8379 31.6295H17.5569L16.8151 32.1395L16.4287 35.555L16.7842 35.215H22.6107L22.9971 35.555L22.5798 32.1395Z" fill="#161616" stroke="#161616" stroke-width="1.23156" stroke-linecap="round" stroke-linejoin="round"/>
<path d="M38.0958 14.1036L39.4095 7.79797L37.4467 1.94055L22.5791 12.9754L28.2974 17.8128L36.3804 20.1774L38.1731 18.091L37.4004 17.5346L38.6368 16.4064L37.6786 15.6645L38.915 14.7218L38.0958 14.1036Z" fill="#763D16" stroke="#763D16" stroke-width="1.23156" stroke-linecap="round" stroke-linejoin="round"/>
<path d="M0 7.79797L1.31367 14.1036L0.479103 14.7218L1.7155 15.6645L0.772746 16.4064L2.00914 17.5346L1.23639 18.091L3.01371 20.1774L11.0966 17.8128L16.815 12.9754L1.94732 1.94055L0 7.79797Z" fill="#763D16" stroke="#763D16" stroke-width="1.23156" stroke-linecap="round" stroke-linejoin="round"/>
<path d="M36.3802 20.1773L28.2973 17.8127L30.7546 21.5065L27.0918 28.6157L31.9137 28.5539H39.1003L36.3802 20.1773Z" fill="#F6851B" stroke="#F6851B" stroke-width="1.23156" stroke-linecap="round" stroke-linejoin="round"/>
<path d="M11.0973 17.8127L3.01435 20.1773L0.325195 28.5539H7.49628L12.3028 28.6157L8.6554 21.5065L11.0973 17.8127Z" fill="#F6851B" stroke="#F6851B" stroke-width="1.23156" stroke-linecap="round" stroke-linejoin="round"/>
<path d="M22.069 21.8929L22.579 12.9754L24.9282 6.62341H14.4961L16.8143 12.9754L17.3553 21.8929L17.5407 24.7057L17.5562 31.6295H21.8372L21.8681 24.7057L22.069 21.8929Z" fill="#F6851B" stroke="#F6851B" stroke-width="1.23156" stroke-linecap="round" stroke-linejoin="round"/>
</g>
<defs>
<clipPath id="clip0_6077_411028">
<rect width="39.4101" height="39.4101" fill="white" transform="translate(0 0.401123)"/>
</clipPath>
</defs>
</svg>
