<svg width="64" height="64" viewBox="0 0 64 64" fill="none" xmlns="http://www.w3.org/2000/svg">
<path d="M32.0009 40C23.5474 40 16.0297 44.0817 11.2436 50.4159C10.2134 51.7792 9.6984 52.4608 9.71524 53.3821C9.72826 54.0938 10.1752 54.9917 10.7352 55.4312C11.4601 56 12.4646 56 14.4735 56H49.5283C51.5373 56 52.5417 56 53.2666 55.4312C53.8266 54.9917 54.2735 54.0938 54.2866 53.3821C54.3034 52.4608 53.7884 51.7792 52.7583 50.4159C47.9721 44.0817 40.4544 40 32.0009 40Z" fill="#1D2939"/>
<path d="M32.0009 32C38.6283 32 44.0009 26.6274 44.0009 20C44.0009 13.3726 38.6283 8 32.0009 8C25.3735 8 20.0009 13.3726 20.0009 20C20.0009 26.6274 25.3735 32 32.0009 32Z" fill="#1D2939"/>
<path d="M32.0009 40C23.5474 40 16.0297 44.0817 11.2436 50.4159C10.2134 51.7792 9.6984 52.4608 9.71524 53.3821C9.72826 54.0938 10.1752 54.9917 10.7352 55.4312C11.4601 56 12.4646 56 14.4735 56H49.5283C51.5373 56 52.5417 56 53.2666 55.4312C53.8266 54.9917 54.2735 54.0938 54.2866 53.3821C54.3034 52.4608 53.7884 51.7792 52.7583 50.4159C47.9721 44.0817 40.4544 40 32.0009 40Z" stroke="#1D2939" stroke-width="2" stroke-linecap="round" stroke-linejoin="round"/>
<path d="M32.0009 32C38.6283 32 44.0009 26.6274 44.0009 20C44.0009 13.3726 38.6283 8 32.0009 8C25.3735 8 20.0009 13.3726 20.0009 20C20.0009 26.6274 25.3735 32 32.0009 32Z" stroke="#1D2939" stroke-width="2" stroke-linecap="round" stroke-linejoin="round"/>
</svg>
