<?xml version="1.0" encoding="UTF-8"?>
<svg xmlns="http://www.w3.org/2000/svg" xmlns:xlink="http://www.w3.org/1999/xlink" viewBox="0 0 2850.66 2776.45">
  <defs>
    <style>
      .cls-1, .cls-2, .cls-3, .cls-4 {
        fill: none;
      }

      .cls-5, .cls-6 {
        mix-blend-mode: screen;
        opacity: .16;
      }

      .cls-5, .cls-7 {
        fill: #fff;
      }

      .cls-8 {
        fill: url(#linear-gradient);
      }

      .cls-2 {
        isolation: isolate;
      }

      .cls-6 {
        fill: url(#linear-gradient-2);
      }

      .cls-9 {
        fill: #f4f7fa;
      }

      .cls-10 {
        fill: url(#linear-gradient-5);
      }

      .cls-10, .cls-11 {
        mix-blend-mode: multiply;
        opacity: .3;
      }

      .cls-11 {
        fill: url(#linear-gradient-19);
      }

      .cls-12 {
        fill: url(#linear-gradient-8);
      }

      .cls-13 {
        fill: url(#linear-gradient-9);
      }

      .cls-14 {
        fill: url(#linear-gradient-3);
      }

      .cls-15 {
        fill: url(#linear-gradient-4);
      }

      .cls-16 {
        fill: url(#linear-gradient-6);
      }

      .cls-17 {
        fill: url(#linear-gradient-7);
      }

      .cls-18 {
        fill: url(#linear-gradient-14);
      }

      .cls-19 {
        fill: url(#linear-gradient-18);
      }

      .cls-20 {
        fill: url(#linear-gradient-15);
      }

      .cls-21 {
        fill: url(#linear-gradient-16);
      }

      .cls-22 {
        fill: url(#linear-gradient-17);
      }

      .cls-23 {
        fill: url(#linear-gradient-13);
      }

      .cls-24 {
        fill: url(#linear-gradient-12);
      }

      .cls-25 {
        fill: url(#linear-gradient-10);
      }

      .cls-26 {
        fill: url(#linear-gradient-11);
      }

      .cls-3 {
        clip-path: url(#clippath);
      }

      .cls-4 {
        mix-blend-mode: soft-light;
      }
    </style>
    <linearGradient id="linear-gradient" x1="561.86" y1="925.35" x2="1478.02" y2="925.35" gradientUnits="userSpaceOnUse">
      <stop offset="0" stop-color="#ffc444"/>
      <stop offset="1" stop-color="#f36f56"/>
    </linearGradient>
    <linearGradient id="linear-gradient-2" x1="617.08" y1="930.4" x2="1372.97" y2="930.4" gradientUnits="userSpaceOnUse">
      <stop offset="0" stop-color="#ffc444"/>
      <stop offset=".31" stop-color="#fba94a"/>
      <stop offset="1" stop-color="#f36f56"/>
    </linearGradient>
    <linearGradient id="linear-gradient-3" x1="164.55" y1="1154.8" x2="1204.37" y2="1154.8" gradientUnits="userSpaceOnUse">
      <stop offset="0" stop-color="#ff9085"/>
      <stop offset="1" stop-color="#fb6fbb"/>
    </linearGradient>
    <clipPath id="clippath">
      <circle class="cls-1" cx="1490.38" cy="1451.77" r="805.92"/>
    </clipPath>
    <linearGradient id="linear-gradient-4" x1="1531.58" y1="1571.47" x2="1198.56" y2="582.51" gradientUnits="userSpaceOnUse">
      <stop offset="0" stop-color="#e38ddd"/>
      <stop offset="1" stop-color="#9571f6"/>
    </linearGradient>
    <linearGradient id="linear-gradient-5" x1="676.76" y1="1451.77" x2="2304.01" y2="1451.77" xlink:href="#linear-gradient"/>
    <linearGradient id="linear-gradient-6" x1="12370.65" y1="-12159.42" x2="8968.35" y2="-9029.3" gradientTransform="translate(5570.26 -7886.76) rotate(73.47) scale(1 -1)" gradientUnits="userSpaceOnUse">
      <stop offset="0" stop-color="#6165d7"/>
      <stop offset="1" stop-color="#aa80f9"/>
    </linearGradient>
    <linearGradient id="linear-gradient-7" x1="2868.58" y1="-500.2" x2="-533.79" y2="2629.99" gradientTransform="matrix(1,0,0,1,0,0)" xlink:href="#linear-gradient-6"/>
    <linearGradient id="linear-gradient-8" x1="-4402.15" y1="-4363.32" x2="-3991.58" y2="-4363.32" gradientTransform="translate(-2801.13 -1428.14) rotate(-106.53) scale(1 -1)" xlink:href="#linear-gradient-3"/>
    <linearGradient id="linear-gradient-9" x1="561.86" y1="1927.59" x2="2650.62" y2="1927.59" xlink:href="#linear-gradient-3"/>
    <linearGradient id="linear-gradient-10" x1="3618.71" y1="2552.47" x2="3720.43" y2="4617.42" gradientTransform="translate(5572.44) rotate(-180) scale(1 -1)" gradientUnits="userSpaceOnUse">
      <stop offset="0" stop-color="#444b8c"/>
      <stop offset="1" stop-color="#26264f"/>
    </linearGradient>
    <linearGradient id="linear-gradient-11" x1="1255.49" y1="2288.41" x2="2242.2" y2="2013.76" gradientTransform="matrix(1,0,0,1,0,0)" xlink:href="#linear-gradient-6"/>
    <linearGradient id="linear-gradient-12" x1="2991.88" y1="2205.57" x2="3981.86" y2="2205.57" gradientTransform="translate(5572.44) rotate(-180) scale(1 -1)" xlink:href="#linear-gradient-6"/>
    <linearGradient id="linear-gradient-13" x1="1161.26" y1="1788.29" x2="2008.99" y2="2968.08" gradientTransform="matrix(1,0,0,1,0,0)" xlink:href="#linear-gradient-10"/>
    <linearGradient id="linear-gradient-14" x1="2092.64" y1="2403.04" x2="1631.19" y2="2551.13" gradientUnits="userSpaceOnUse">
      <stop offset="0" stop-color="#fcb148"/>
      <stop offset=".05" stop-color="#fdb946"/>
      <stop offset=".14" stop-color="#fec144"/>
      <stop offset=".32" stop-color="#ffc444"/>
      <stop offset=".48" stop-color="#fdb946"/>
      <stop offset=".78" stop-color="#f99c4c"/>
      <stop offset=".87" stop-color="#f8924f"/>
      <stop offset="1" stop-color="#f8924f"/>
    </linearGradient>
    <linearGradient id="linear-gradient-15" x1="2465.92" y1="1943.72" x2="2053.97" y2="2852.56" gradientUnits="userSpaceOnUse">
      <stop offset="0" stop-color="#ffdb44"/>
      <stop offset="1" stop-color="#feef06"/>
    </linearGradient>
    <linearGradient id="linear-gradient-16" x1="2390.14" y1="2903.36" x2="2310.66" y2="2469.12" xlink:href="#linear-gradient-14"/>
    <linearGradient id="linear-gradient-17" x1="2221.62" y1="2200.5" x2="2549.19" y2="2895.88" xlink:href="#linear-gradient-14"/>
    <linearGradient id="linear-gradient-18" x1="2208.56" y1="2050.86" x2="2373.28" y2="2668.19" xlink:href="#linear-gradient-15"/>
    <linearGradient id="linear-gradient-19" x1="2125.24" y1="2245.5" x2="2452.16" y2="2939.48" xlink:href="#linear-gradient-14"/>
  </defs>
  <g class="cls-2">
    <g id="Layer_2" data-name="Layer 2">
      <g id="Illustration">
        <g>
          <path class="cls-9" d="m661.7,164.76c-92.45,132.34,15.95,346.91-121.23,446.44-133.53,96.89-297.57-61.93-423.42,21.48-186.68,123.72-152.59,689.85,120.35,1041.59,82.08,105.78,150.67,146.94,181.04,266.57,65.23,256.88-164.01,409.7-120.39,536.75,98.22,286.07,1608.84,526.12,2214.97-333.62,283.09-401.54,325.44-981.36,72.51-1421.73C2128.51-73.52,869.14-132.2,661.7,164.76Z"/>
          <g>
            <path class="cls-8" d="m1134.99,1741.3c46.4,1.08,124.52,2.9,197.64-45.47,132.95-87.93,163.1-284.65,136.63-424.86-22.74-120.44-105.17-221.01-270.04-422.15-155.27-189.44-217.59-225.9-209.23-307.53,11.91-116.37,150.62-159.99,144.16-297.83-.78-16.54-3.44-73.35-43.25-107.55-68.15-58.54-197.32-9.73-265.12,35.35-65.4,43.48-150.43,134.52-141.89,233.64,6.19,71.82,56.24,86.87,47.62,148.21-8.66,61.71-61.94,65.08-115.38,153.69-21.35,35.4-64.2,106.46-52.19,183.75,15.53,99.94,108.72,119.84,101.61,196.34-5.14,55.27-55.47,62.95-74.16,122.73-24.61,78.7,32.63,161.28,81.18,229.36,57.17,80.17,211.42,296.47,462.42,302.31Z"/>
            <path class="cls-6" d="m1049.73,159.17c31.69,44.93-138.69,131.74-167.11,317.72-30.58,200.11,121.84,392.95,192.27,482.07,120.18,152.05,193.52,155.75,254.05,299.85,23.96,57.03,73.87,175.86,19.82,295.91-5.02,11.15-62.86,134.67-183.28,159.3-136.59,27.93-249.84-92.6-347.42-196.47-58.96-62.76-176.75-188.13-137.19-264.45,24.18-46.66,101.6-64.25,157.44-57.17,79.69,10.09,126.34,71.81,137.64,61.43,10.18-9.35-17.87-68.42-66.23-122.2-96.74-107.59-175.83-84.06-243.3-175.97-8.18-11.14-71.69-100.35-40.98-190.01,17.72-51.71,67.24-104.92,112.54-100.31,51.24,5.21,74.97,82.13,89.53,76.02,13.92-5.84.69-79.72-23.06-150.82-34.89-104.48-63.4-115.91-68.58-175.91-7.9-91.54,49.98-163.12,58.45-173.29,79.36-95.3,228.34-124.11,255.43-85.7Z"/>
          </g>
          <g>
            <path class="cls-14" d="m985.73,1856.79c41.65-13.13,111.76-35.24,162.19-100.51,91.68-118.68,58.79-303.02-7.37-419.84-56.83-100.34-160.78-164.87-368.68-293.91-195.8-121.54-262.37-135.08-279.72-210.31-24.74-107.24,85.54-188.22,37.92-309-5.71-14.49-25.34-64.27-71.18-82.63-78.46-31.43-178.67,51.26-225.36,112-45.03,58.58-93.1,165.48-55.39,251.16,27.32,62.08,76.46,60.28,87.42,117.51,11.03,57.58-35.39,76.77-56.07,171.91-8.26,38.01-24.84,114.3,9.33,179.48,44.18,84.28,133.21,73.7,150.11,143.98,12.21,50.78-30.27,72.91-28.77,131.82,1.98,77.56,78.04,133.71,141.95,179.59,75.26,54.03,278.31,199.79,503.6,128.76Z"/>
            <path class="cls-5" d="m429.29,473.8c41.86,30.38-83.49,159.43-52.32,333.68,33.54,187.48,227.84,312.92,317.63,370.88,153.2,98.9,219.63,79.92,317.3,189.86,38.66,43.51,119.19,134.17,107.52,257.49-1.08,11.46-15.08,139.02-114.83,197.52-113.15,66.36-250.61-6.58-369.05-69.43-71.57-37.98-214.54-113.84-202.49-193.83,7.36-48.89,70.96-88.07,122.83-98.73,74.03-15.21,134.31,25.58,141.22,12.9,6.22-11.42-36.69-55.5-96.1-88.71-118.82-66.43-182.11-21.45-270.11-82.8-10.67-7.44-94.32-67.59-94.2-156.76.07-51.43,28.01-113.85,69.76-123.51,47.21-10.92,91.71,50.37,102.82,40.5,10.62-9.43-23.6-71.2-66.35-127.31-62.8-82.44-91.66-83.96-114.5-135.82-34.84-79.12-5.03-160.44-.58-172.07,41.72-108.97,165.64-179.87,201.43-153.89Z"/>
          </g>
          <g class="cls-3">
            <g>
              <path class="cls-15" d="m2306.18,1452.46c0,172.7-54.24,332.9-146.2,464.77-.36.54-1.66,1.06-1.66,1.6v.02c-144.3,211.43-391.56,348.41-668.92,348.41-22.69,0-44.41-1.06-66.63-4.13h-.02c-.09,0-.14,1.35-.23,1.35-10.94-.9-21.78-1.32-32.58-2.66-3.84-.45-7.68-.61-11.5-1.15-3.39-.45-6.76-.75-10.12-1.27-2.94-.43-5.85-.8-8.74-1.27-.66-.11-1.31-.18-1.97-.27-7.12-1.17-14.21-2.4-21.29-3.75-.05,0-.07-.01-.11-.01-377.1-72.04-662.04-403.56-662.04-801.65,0-84.17,12.23-165.38,35.91-241.77,3.71-11.98,8.32-23.81,11.39-35.54v-.02c9.21-19.55,15.38-38.73,23.86-57.55,3.41-7.52,7.18-15,10.78-22.42,19.86-40.72,43.13-79.54,69.23-116.12,2.37-3.32,4.84-6.62,7.25-9.92,9.67-13.15,19.76-25.99,30.22-38.53,15.66-18.8,32.15-36.9,49.41-54.21,44.94-45.1,95.14-84.98,149.57-118.63,16.83-10.42,34.1-20.25,51.73-29.42,42.68-22.28,87.56-40.88,134.27-55.38,76.65-23.84,158.13-36.67,242.61-36.67,194.3,0,372.74,67.88,512.88,181.22,103.08,83.38,186.92,191.32,239.66,314.94,11.8,27.61,19.77,55.99,32.05,85.05v.02c0,.13-1.41.23-1.36.36,22.28,74.3,32.56,153.04,32.56,234.59Z"/>
              <g class="cls-4">
                <path class="cls-7" d="m1422.74,2265.89v-.02h.07l-.05.02h-.02Z"/>
                <path class="cls-7" d="m1668.2,1727.63c-17.51,24.67-71.7,56.35-34.93,118.58,36.45,62.07-2.53,73.71-27.61,67.9-25.19-5.74-103.51-8.95-90.45,26.64,13.02,35.63,35.45,48.99,6.76,62.75-28.67,13.69-40.81,49.46-70.16,98.7-29.15,49.33-98.43,6.67-77.91,56.11,20.47,49.46,36.45,44.67,34.53,79.13-.45,9.47,5.83,19.18,14.33,28.43-10.94-.9-21.92-2.01-32.81-3.34-3.84-.45-7.68-.95-11.5-1.49-3.39-.45-6.76-.93-10.12-1.45-2.94-.43-5.85-.88-8.74-1.36-.66-.11-.49-.23-1.14-.32-7-1.18-10.64-2.44-19.85-3.77v-.02c-6.14-5.83-2.29-12.16-1.37-18.98,9.15-63.63-78.64-107.35-93.35-151.94-14.46-44.47-.18-71-3.53-107.85-3.43-36.79,8.6-85.57-12.58-116.57-21.17-30.89-106.52-41.24-122.77-103.58-16.36-62.21,21.69-155.37,36.47-171.23,14.6-15.86-70.67-88.03-111.25-90.34-40.76-2.49-24.46-84.55-93.37-72.06-69.05,12.11-193.11-26.41-167.48-67.86,21.15-34.14,56.65-109.45-59.24-143.03,3.71-11.98,8.3-23.82,11.37-35.54v-.02c9.21-19.55,15.38-38.73,23.86-57.55,3.41-7.52,7.18-15,10.78-22.42,19.89-40.72,43.16-79.54,69.23-116.12,2.37-3.32,4.84-6.62,7.25-9.92,9.69-13.15,19.78-26.01,30.22-38.53,15.66-18.8,32.15-36.9,49.41-54.21,44.94-45.1,95.14-84.98,149.57-118.63,22.96,16.09,49.17,26.01,71.81,13.78,55.52-31.07,18.91-35.84-3.82-36.99-5.92-.29-11.66-2.64-16.27-6.21,42.68-22.28,87.56-40.88,134.27-55.38-3.46,31.34-46.05,81.68-14.71,75.54,36.47-6.94,51.36-105.48,78.14-72.74,27.16,32.88-29.71,75.97,23.7,51,53.48-24.72,60.62-79.9,120.23-53.06,59.9,27.18,54.43,59.36,71.16,56.17,16.65-3.14,70.52,33.06,37.94,62.84-32.88,29.87-63.02-8.18-112.3-19.66-49.3-11.34-48.11,28.99-70.79,38.21-23.07,8.9-134.36-44.88-161.67,3.73-27.61,48.22-39.36,81.87,1.63,80.62,40.94-1.15,43.59-11.75,40.38,18.53-3.28,30.3,4.18,52.99,41.28,24.49,36.99-28.45,28.7-56.2,57.62-42.64,28.95,13.6,32.36,1.29,63.13-21.06,30.75-22.35,71.22-24.67,81.82,25.47,10.62,50.16-7.52,61.42-61.62,63.95-54.12,2.62-60.24-14.44-77.48,30.8-17.15,45.26-88.73,103.38-151.57,127.33-62.73,24-87.31,59.45-85.86,107.29,1.49,47.93-22.1,98.47-37.85,58.98-15.82-39.61-60.15-106.31-105.39-61.73-45.33,44.67-124.21,123.64-37.03,138.08,86.99,14.71,41.6-66.79,85.57-50.5,43.9,16.4-27.82,52.33,1.54,65.3,29.4,13.08,41.71,6.96,41.49,47.02-.23,40.04,9.74,78.93,45.42,61.93,35.66-16.92,81.46-95.42,133.04-48.99,51.65,46.55,47.99,40.49,75.09,26.93,27.07-13.53,44.31,27.05,55.41,45.53,11.09,18.46,54.61-.38,89.89,54.61,35.25,55,49.08,64.81,89.28,45.01,40.22-19.77,56.58-5.08,67.06,22.69,10.44,27.77,35.21.63,47.14,37.33,11.86,36.67,6.17,30.98-11.23,55.68Z"/>
                <g>
                  <path class="cls-7" d="m1805.86,1061.3c-28.49-61.14,112.69-54.28,137.63-49.58,25.1,4.18,83.99-41.85,91.47-63.25,7.68-21.56,20.29-11.32,64.96-11.93,44.65-.47,5.2-10.57-43.95-26.78-49.06-16.16-7.12-17.78-52.33-53.48-19.45-15.64-13.33-28.92-.36-38.8,103.08,83.38,185.44,191.32,238.18,314.94-1.49-.45-2.89-.7-4.2-.72-31.27-.18-38.16-69.32-54.28-82.79-15.89-13.44.45,37.98,4.34,59.11,3.91,21.15-8.56,3.37-24.16,22.78-15.66,19.43-43.93,19.79-46.48-9.35-2.6-29.08-23.09-57.64-64.69-70.93-41.6-13.29-77.59-2.37-111.4,10.66-33.62,12.81-106.04,60.78-134.74.11Z"/>
                  <path class="cls-7" d="m2160.3,1918.84c2.82-20.99,7.43-42.68-1.33-50.62-21.31-19.77-25.96-73.64-18.57-100.94,7.37-27.36,64.78-25.8,25.83-71.25-39.07-45.58-74.27-99.67-57.87-130.6,16.41-30.89,11.43-33.15-19.32-32.97-30.8.18-44.29,1.54-74.95-25.85-30.69-27.75-72.9,65.48-188.38-9.29-115.46-75.52-49.71-202.8-6.44-203.11,43.54-.72,94.41-22.71,58.73-75.81-35.57-53.3,20.02-60.83,47.18-48.72,27.21,11.98,75.45-20.2,124.62-34.71,49.28-14.44,47.11,65.84,74.48,81.91,27.52,16.09,79.09,3.32,105.88-22.39,19.14-18.35,23.32,3.05,42.23,23.36,22.28,74.3,34.23,153.04,34.23,234.59,0,173.4-54.07,334.19-146.31,466.38Z"/>
                  <path class="cls-7" d="m1953.74,959.53s36.01-16.29,22.97-42.46c-12.92-26.18-33.42-106.4-48.4-81.12-15.07,25.39,7.15,74.7,2.29,95.98-4.9,21.34-5.03,32.51,23.13,27.61Z"/>
                  <path class="cls-7" d="m1917.81,935.04c-.51-8.43,4.8-42.68-22.15-41.61.05-.05-38.98,16.24-16.15,43.91,22.94,27.59,38.88,6.12,38.3-2.3Z"/>
                </g>
              </g>
            </g>
            <path class="cls-10" d="m2304.01,1451.03c0,172.7-53.15,332.91-145.12,464.78-.36.54-.57,1.06-.57,1.6v.02c-147.37,211.43-392.64,347.77-670.01,347.77-22.69,0-45.5-1.73-67.71-4.8h-.02c-.09,0-.14,2.02-.23,2.02-10.94-.9-21.78-1.01-32.58-2.35-3.84-.45-7.68-.44-11.5-.98-3.39-.45-6.76-.67-10.12-1.19-2.94-.43-5.85-.74-8.74-1.22-.66-.11-1.31-.17-1.97-.26-7.12-1.18-14.21-2.39-21.29-3.74-.05,0-.07,0-.11,0-348.72-66.61-618.61-355.32-657.27-713.18,81.78,234.57,283.99,410.81,532.59,459.94h.09c6.1,3.07,12.22,2.45,18.37,3.47.56.07,1.15.27,1.72.36,2.49.41,5.02.82,7.55,1.18,2.89.45,5.81.82,8.75,1.2,3.3.47,6.6.76,9.92,1.14,9.33,1.15,18.69,3.28,28.13,4.05.09,0,.14.88.2.88h.02c19.18,0,38.3,1.54,57.89,1.54,119.76,0,232.62-30.45,331.37-82.98,98.74-52.53,183.36-128.28,246.63-219.57,0-.47.77-1.11,1.06-1.58,79.43-113.86,125.91-252.31,125.91-401.44,0-70.41-10.34-138.47-29.59-202.62-.02-.11-.28-.25-.28-.36v-.02c-6.14-25.08-16.03-49.6-26.2-73.44-45.55-106.77-116.49-199.97-205.52-271.96-65.17-52.72-139.91-94.02-221.23-120.93,164.72,15.16,315.28,79.31,436.96,177.72,103.08,83.38,186.47,191.32,239.21,314.94,11.79,27.61,19.32,55.99,31.6,85.05v.02c0,.14-.96.23-.91.36,22.28,74.29,33.01,153.04,33.01,234.59Z"/>
          </g>
          <g>
            <polygon class="cls-16" points="568.43 1267.53 406.49 1548.12 130.11 1401.03 178.67 1582.5 455.02 1729.46 616.99 1449 568.43 1267.53"/>
            <path class="cls-17" d="m2422.46,834.99l-212.74-85.64c-60.93-79.57-136.03-149.57-223.77-206.6-434.97-282.6-1038.42-151.39-1345.24,292.44-127.45,184.26-187.89,397.21-175.18,610.57,2.37,41.53,7.61,83.13,15.63,124.52,6.91,35.46-16.89,71.05-53.18,79.57-36.23,8.51-71.19-13.33-78.1-48.79-5.79-30.08-10.33-60.16-13.61-90.32-27.92-259.99,39.99-521.93,195.29-746.53C880.81,258.96,1567.81,109.6,2062.94,431.29c61.42,39.92,117.32,85.43,167.51,135.61,78.94,79.01,143.43,169.6,192.01,268.09Z"/>
          </g>
          <g>
            <polygon class="cls-12" points="2412.34 1616.73 2574.28 1336.14 2850.66 1483.24 2802.1 1301.77 2525.75 1154.8 2363.78 1435.27 2412.34 1616.73"/>
            <path class="cls-13" d="m2449.27,2120.06c-349.33,505.25-1036.33,654.54-1531.46,332.86-61.42-39.85-117.33-85.36-167.51-135.54-76.98-77.12-140.29-165.28-188.45-261.04l225.16,98.76c57.93,71.26,127.58,134.29,207.85,186.42,434.9,282.6,1038.35,151.39,1345.17-292.44,127.45-184.26,187.89-397.21,175.19-610.64-2.38-41.53-7.61-83.06-15.64-124.45-6.91-35.46,16.89-71.05,53.19-79.57,36.22-8.51,71.19,13.33,78.1,48.79,5.79,30.08,10.33,60.16,13.61,90.32,27.92,259.99-39.99,521.93-195.22,746.53Z"/>
          </g>
          <g>
            <path class="cls-25" d="m2214.2,1712.8h-54.25v-68.48c0-22.04-16.48-40.82-38.34-43.66l-236.65-30.81c-12.74-1.66-25.08,2.1-34.74,10.58-9.66,8.48-14.97,20.23-14.97,33.08v63.02h-54.25v-63.02c0-28.27,12.18-55.19,33.43-73.85,21.24-18.66,49.5-27.29,77.54-23.61l236.65,30.81c48.79,6.35,85.59,48.25,85.59,97.46v68.48Z"/>
            <path class="cls-26" d="m1328.6,1686.93l288.1-52.25-26.12,1141.77-212.73-34.87c-18.94-3.1-33.14-19-34.09-38.17l-48.57-974.37c-1.02-20.44,13.28-38.45,33.41-42.11Z"/>
            <path class="cls-24" d="m2525.88,1712.21l-909.17-77.53-26.12,1141.77,871.95-118.77c27.83-3.79,49.26-26.44,51.5-54.43l66.33-826.71c2.63-32.78-21.72-61.53-54.49-64.32Z"/>
            <path class="cls-23" d="m1464.73,1662.24l-27.02,4.9c4.65,203.24,19.4,849.29,24.41,1088.25l27.22,4.46c-4.93-237.12-19.99-896.08-24.6-1097.61Z"/>
          </g>
          <g>
            <path class="cls-18" d="m2623.86,2386.3c0,214.07-167.39,382.47-381.34,375.9-222.65-6.84-409.91-199.13-409.91-429.24s187.26-397.16,409.91-373.97c213.94,22.28,381.34,213.25,381.34,427.32Z"/>
            <path class="cls-20" d="m2681.67,2367.84c0,214.07-167.39,382.47-381.34,375.9-222.65-6.84-409.91-199.13-409.91-429.24s187.26-397.16,409.91-373.97c213.94,22.28,381.34,213.25,381.34,427.32Z"/>
            <path class="cls-21" d="m2664.88,2366.71c0,204.64-160.16,365.36-364.54,358.74-212.31-6.87-390.57-190.39-390.57-409.65s178.26-378.74,390.57-356.98c204.38,20.94,364.54,203.25,364.54,407.89Z"/>
            <path class="cls-22" d="m2652.85,2365.9c0,197.89-154.98,353.11-352.52,346.48-204.94-6.88-376.8-184.13-376.8-395.65s171.86-365.6,376.8-344.84c197.54,20,352.52,196.12,352.52,394.01Z"/>
            <path class="cls-19" d="m2298.32,2039.21h0c10.51,1,19.02,10.46,19.02,21.14v36.44c21.02,2.35,42.07,6,63.15,10.95,15.54,3.65,30.98,8,46.31,13.04,9.19,3.02,15.45,12.3,14.51,21.86l-4.47,45.69c-1.19,12.12-13.17,19.24-24.45,14.21-10.1-4.5-20.46-8.36-31.07-11.57-18.52-5.6-38.05-9.26-58.6-10.95l-5.37-.44v104.35c54.84,15.34,95.11,35.98,121.13,61.94,25.9,25.84,38.8,58.03,38.8,96.69,0,41.8-14.27,75.27-42.91,100.52-28.8,25.38-69.18,39.65-121.4,42.74v40.21c0,10.68-8.51,19-19.04,18.58h-.34c-10.54-.43-19.1-9.46-19.1-20.18v-39.67l-8.47-.38c-24.48-1.1-47.93-3.6-70.33-7.5-16.59-2.89-32.79-6.61-48.6-11.18-9.56-2.76-16.12-11.87-15.25-21.65l5.27-58.73c1.14-12.7,13.89-20.08,25.96-15.32,14.07,5.55,28.32,10.23,42.74,14.03,22.47,5.93,45.25,9.73,68.34,11.42l.34-116.07c-52.64-13.02-92.05-32.32-117.94-57.87-26.01-25.67-39.06-58.53-39.06-98.48s14.15-73.25,42.35-95.65c28.06-22.28,67.94-33.37,119.39-33.34v-37.25c0-10.71,8.55-18.58,19.09-17.58Zm-19.09,139.29c-16.27,1.18-28.95,5.65-38.03,13.41-9.09,7.77-13.65,18.22-13.65,31.32,0,12.42,4.21,22.8,12.63,31.13,8.4,8.32,21.43,14.96,39.06,19.92v-95.78Zm33.74,210.18v106.44c17.68.03,31.25-4.19,40.71-12.65,9.45-8.45,14.17-20.39,14.17-35.83,0-14.08-4.39-25.75-13.17-35.03-8.8-9.3-22.69-16.94-41.71-22.92Z"/>
            <path class="cls-11" d="m2236.55,2414.36c11.91-117.63,120.02-167.43,105.91-275.64-8.7-66.69-59.24-122.89-115.63-166.78-171.03,17.94-303.29,159.56-303.29,344.79,0,211.53,171.86,388.77,376.8,395.65,19.9.67,39.33-.37,58.23-2.84-81.39-80.99-132.25-194.12-122.02-295.18Z"/>
          </g>
        </g>
      </g>
    </g>
  </g>
</svg>