<?xml version="1.0" encoding="UTF-8"?>
<svg id="Layer_2" data-name="Layer 2" xmlns="http://www.w3.org/2000/svg" xmlns:xlink="http://www.w3.org/1999/xlink" viewBox="0 0 2934.25 1689.37">
  <defs>
    <style>
      .cls-1 {
        fill: #f3f6fd;
      }

      .cls-2 {
        fill: #e6515c;
      }

      .cls-3 {
        fill: #fff;
      }

      .cls-4 {
        fill: #ffc0b1;
      }

      .cls-5 {
        fill: #cce6ff;
      }

      .cls-6 {
        fill: #102a54;
      }

      .cls-7 {
        fill: #3c94f8;
      }

      .cls-8 {
        fill: #80c0fe;
      }

      .cls-9 {
        clip-path: url(#clippath);
        fill: none;
      }
    </style>
    <clipPath id="clippath">
      <path class="cls-7" d="m1932.13,1151.18l-21.04-162.47-378.14,23.69-129.33,11.34c-17.01,0-33.21,3.45-47.95,9.68-51.65,21.85-81.13,76.76-72.26,132.13l43.99,519.81,433.53-2.14,2.34-502.31,168.86-29.74Z"/>
    </clipPath>
  </defs>
  <g id="Layer_1-2" data-name="Layer 1">
    <g>
      <path class="cls-1" d="m399.06,1685.37h2277.15c65.85-148.93,99.66-313.82,119.88-475.4,7.03-56.16,10.75-115.54-12.61-167.1-22.84-50.4-68.5-86.42-114.77-116.76-120.26-78.86-256.45-133.31-397.93-159.12-85.49-15.59-177.97-22.95-245.8-77.27-50.47-40.42-79.46-101.07-117.74-153.19-91.08-124.02-238.86-200.3-391.43-220.28-152.57-19.98-309.05,12.99-449.21,76.47-72.44,32.81-142.56,74.81-193.96,135.5-80.03,94.5-105.62,221.91-134.55,342.31-28.94,120.4-69.08,247.43-166.23,324.21-91.07,71.98-228.68,97.99-273.71,204.97-39.98,94.98,42.4,200.81,100.91,285.65Z"/>
      <g>
        <circle class="cls-6" cx="1941.36" cy="447.53" r="238.5"/>
        <g>
          <circle class="cls-8" cx="1927.49" cy="447.53" r="233.55" transform="translate(248.1 1494.02) rotate(-45)"/>
          <circle class="cls-3" cx="1927.49" cy="447.53" r="142.93" transform="translate(248.1 1494.02) rotate(-45)"/>
          <circle class="cls-8" cx="1927.49" cy="447.53" r="67.35"/>
        </g>
      </g>
      <g>
        <circle class="cls-6" cx="803.1" cy="524.48" r="254.73"/>
        <g>
          <circle class="cls-8" cx="817.92" cy="524.48" r="249.45"/>
          <circle class="cls-3" cx="817.92" cy="524.48" r="152.66"/>
          <circle class="cls-8" cx="817.92" cy="524.48" r="71.93"/>
        </g>
      </g>
      <g>
        <path class="cls-4" d="m1028.61,512.58s-29.61-7.4-41.95-6.42c-12.34.99-19.05,46.8-13.22,58.44s48.76,38.78,48.76,38.78c0,0,26.65-12.34,33.06-25.17,6.42-12.83,5.43-54.78,5.43-54.78l-32.08-10.86Z"/>
        <polygon class="cls-6" points="841.22 530.43 1207.7 515.14 1237.32 541.18 1336.83 537.03 1302.08 506.49 1334.16 473.17 1246.54 476.82 1209.05 505.66 840.83 521.02 841.22 530.43"/>
        <path class="cls-4" d="m1241.19,895.82l-158.23-344.61s.74-50.49-18.77-53.07c-19.52-2.58-63.19,7.17-63.19,7.17,0,0,5.43,20.74,22.91,19.15h18.07s-15.17,32.6-13.05,54.29l-20.81,10.6,92.25,303.9c11.53,37.98,29.9,73.53,54.2,104.9l123.88,159.94,118.13-80.76-155.39-181.51Z"/>
        <path class="cls-6" d="m1161.23,923c-.77,0-1.53-.38-1.98-1.08-.7-1.09-.38-2.54.71-3.24,39.75-25.54,79.58-25.23,81.26-25.2,1.3.02,2.33,1.09,2.31,2.38-.02,1.29-1.11,2.3-2.38,2.31-.41,0-40.15-.28-78.66,24.46-.39.25-.83.37-1.27.37Z"/>
        <path class="cls-6" d="m1038.9,578.94c-.94,0-1.83-.57-2.19-1.5-4.76-12.26-3.66-26.27-1.89-35.87,1.12-6.11,2.62-11.18,3.68-14.37-32.26,2.67-39.09-19.13-39.16-19.36-.37-1.24.34-2.55,1.59-2.91,1.24-.37,2.54.34,2.91,1.58.25.82,6.47,19.86,37.82,15.64.83-.11,1.65.23,2.17.89.51.66.64,1.54.32,2.32-.12.29-11.44,28.81-3.06,50.41.47,1.21-.13,2.57-1.34,3.04-.28.11-.57.16-.85.16Z"/>
        <path class="cls-6" d="m1024.99,548.55c-.39,0-.79-.03-1.18-.09-28.16-4.58-49.02-23.93-49.89-24.75-.94-.89-.99-2.37-.1-3.31.89-.94,2.37-.99,3.32-.11.2.19,20.72,19.19,47.43,23.54.74.12,1.51-.07,2.11-.53.59-.45.97-1.09,1.05-1.81.31-2.71-.06-7.31-3.56-13.87-.61-1.14-.18-2.56.96-3.17,1.14-.61,2.56-.18,3.17.96,3.27,6.12,4.65,11.72,4.09,16.62-.23,2-1.25,3.79-2.88,5.02-1.31.99-2.9,1.52-4.52,1.52Z"/>
        <path class="cls-6" d="m1022.21,565.62c-10.68,0-31.24-5.77-35.14-8.09-8.07-4.8-16.89-12.17-17.26-12.48-.99-.83-1.12-2.31-.29-3.3.83-.99,2.31-1.12,3.3-.29.09.07,8.9,7.45,16.64,12.05,5.96,3.54,31.97,8.84,35.52,7.26,1.27-1.29-.09-7.7-2.91-13.62-.56-1.17-.06-2.57,1.11-3.13,1.17-.56,2.57-.06,3.13,1.11,6.52,13.66,2.91,18.2,1.65,19.27-1.02.87-3.08,1.23-5.75,1.23Z"/>
        <path class="cls-6" d="m1015.69,580.86c-9.51,0-30.08-6.8-32.08-7.7-3.59-1.62-11.11-6.38-11.43-6.58-1.09-.69-1.42-2.14-.72-3.24.69-1.09,2.14-1.42,3.24-.72.08.05,7.55,4.79,10.84,6.27,1.45.65,8.6,2.99,15.92,4.85,11.16,2.83,14.68,2.57,15.6,2.37.83-2.74.28-8.14-.3-11.07-.25-1.27.57-2.51,1.84-2.76,1.27-.26,2.51.57,2.76,1.84.19.96,1.82,9.55-.13,14.25-.26.63-.86,1.5-2.18,2.02-.82.33-1.97.47-3.35.47Z"/>
      </g>
      <g>
        <ellipse class="cls-6" cx="417.68" cy="1315.17" rx="137.02" ry="329.44" transform="translate(-222.2 92.6) rotate(-10.01)"/>
        <g>
          <ellipse class="cls-8" cx="436.25" cy="1314.03" rx="137.02" ry="329.44" transform="translate(-221.72 95.81) rotate(-10.01)"/>
          <ellipse class="cls-3" cx="447.23" cy="1311.51" rx="83.63" ry="201.08" transform="translate(-221.12 97.68) rotate(-10.01)"/>
          <ellipse class="cls-8" cx="457.39" cy="1308.96" rx="41.18" ry="99.02" transform="translate(-220.52 99.41) rotate(-10.01)"/>
        </g>
      </g>
      <g>
        <ellipse class="cls-6" cx="2704.48" cy="798.77" rx="414.28" ry="172.31" transform="translate(1447.85 3323.28) rotate(-79.99)"/>
        <g>
          <ellipse class="cls-2" cx="2681.12" cy="797.35" rx="414.28" ry="172.31" transform="translate(1429.96 3299.11) rotate(-79.99)"/>
          <ellipse class="cls-3" cx="2667.32" cy="794.17" rx="252.87" ry="105.17" transform="translate(1421.68 3282.89) rotate(-79.99)"/>
          <ellipse class="cls-2" cx="2654.55" cy="790.98" rx="124.52" ry="51.79" transform="translate(1414.28 3267.67) rotate(-79.99)"/>
        </g>
      </g>
      <g>
        <path class="cls-4" d="m2297.48,712.05s25.01-30.12,33.44-32.89c8.43-2.77,82.54,27.52,82.39,31.16-.14,3.64-20.17,49.66-66.74,60.48l-49.09-58.76Z"/>
        <path class="cls-4" d="m2297.48,712.05l51.57,55.85-257.29,302.4c-2.54,3.16-5.31,6.08-8.27,8.78h0s0,.01,0,.01c-17.81,22.41-43.4,37.29-71.68,41.7l-81.74,14.51-17.19-132.77,64.44-7.81,320.16-282.66Z"/>
        <polygon class="cls-6" points="2673.05 808.57 2277.19 658.84 2257.54 617.79 2150.05 577.14 2173.1 625.28 2123.96 646.12 2218.61 681.92 2271.45 668.29 2669.2 818.73 2673.05 808.57"/>
        <path class="cls-4" d="m2289.43,722.9s65.47-40.82,73.31-42.73c7.84-1.91,4.7,14.9-.99,24.9s-34.63,32.49-34.63,32.49l-37.69-14.66Z"/>
        <path class="cls-6" d="m2296.5,720.86c-.79,0-1.57-.4-2.01-1.13-.67-1.11-.32-2.55.79-3.22l39.78-24.09c1.11-.67,2.55-.32,3.22.79.67,1.11.32,2.55-.79,3.22l-39.78,24.09c-.38.23-.8.34-1.21.34Z"/>
        <path class="cls-6" d="m2334.81,733.73c-.8,0-1.58-.41-2.01-1.14-.67-1.11-.3-2.55.81-3.22,26.77-16.02,31.54-30.18,31.59-30.32.39-1.23,1.71-1.92,2.94-1.53,1.23.38,1.92,1.68,1.55,2.92-.2.64-5.12,15.88-33.66,32.96-.38.23-.79.33-1.2.33Z"/>
        <path class="cls-4" d="m2370.39,689.67s.33,12.3-4.64,18.77c-4.98,6.46-11.69,15.23-11.69,15.23,0,0,4.57,32.66,21.48,34.34,0,0,22.61-14.91,35.63-31.48,6.75-8.6,4.06-21.27-5.63-26.32-7.73-4.02-19.08-8.22-35.14-10.53"/>
        <path class="cls-6" d="m2345.1,742.63c-2.01,0-3.21-.81-3.87-1.53-4.76-5.11-2.65-13.28-.14-16.43.81-1.01,2.29-1.18,3.3-.36,1.01.81,1.17,2.29.36,3.3-1.54,1.92-2.77,7.42-.09,10.29.79.42,5.27-.66,13.83-6.88,6.52-4.74,13.34-10.99,16.2-14.86,5.96-8.06,9.38-17.15,9.42-17.24.45-1.21,1.8-1.83,3.02-1.38,1.21.45,1.83,1.8,1.38,3.02-.15.4-3.68,9.78-10.04,18.39-5.54,7.49-24.26,23.17-32.92,23.67-.15,0-.3.01-.45.01Z"/>
        <path class="cls-6" d="m2349.56,757.34c-.87,0-1.34-.22-1.7-.39-5.56-2.62-2.8-13.88-1.83-17.26.36-1.25,1.66-1.96,2.9-1.6,1.24.36,1.96,1.66,1.6,2.9-1.67,5.81-1.62,10.86-.79,11.64,1.34-.02,6.34-1.82,17.46-8.54,8.07-4.87,15.99-10.34,18.34-12.4,4.09-3.58,12.46-16.96,15.34-21.82.66-1.12,2.1-1.48,3.21-.82,1.11.66,1.48,2.1.82,3.21-.44.74-10.8,18.15-16.29,22.96-3.01,2.64-11.93,8.65-19.87,13.4-12.19,7.29-17,8.72-19.22,8.72Zm.3-4.64h0,0Z"/>
        <path class="cls-6" d="m2006.17,1079.52c-.77,0-1.53-.38-1.97-1.08-34.27-53.17-29.41-82.91-29.18-84.15.23-1.28,1.45-2.12,2.72-1.89,1.27.23,2.12,1.45,1.89,2.72-.07.41-4.54,29.5,28.51,80.78.7,1.09.39,2.54-.7,3.24-.39.25-.83.37-1.27.37Z"/>
      </g>
      <g>
        <g>
          <path class="cls-4" d="m648.51,1202.58l-9.61,75.41,385.01,97.03c3.9,1.1,7.86,1.87,11.83,2.35h0s0,.01,0,.01c27.51,7.92,56.98,5.2,82.57-7.62l52.02-32.73-64.61-110.28-32.45,20.3-424.76-44.48Z"/>
          <path class="cls-4" d="m571.63,1197.82s-52.67,35.11-50.16,48.01,30.88,44.37,50.37,48.16c19.49,3.79,72.39-14.65,72.39-14.65,0,0,8.73-43.18,4.43-50.7-4.3-7.52-77.03-30.81-77.03-30.81Z"/>
          <polygon class="cls-6" points="577.02 1212.89 756.02 1023.54 801.47 1021.23 880.42 937.72 827.11 940.43 826.82 887.05 757.3 960.59 749.51 1014.6 569.92 1203.94 577.02 1212.89"/>
          <polygon class="cls-6" points="530.48 1262.13 465.29 1331.1 457.39 1323.63 524.29 1252.85 530.48 1262.13"/>
          <path class="cls-4" d="m666.56,1204.47c-2.87-.3-31.85-16.15-42.99-17.26-11.14-1.11-43.4,1-59.28,3.8-1.99.35,4.78,18.67,12.7,20.27,36.19,7.32,77.03,24.52,77.03,24.52l12.53-31.32Z"/>
          <g>
            <path class="cls-6" d="m632.66,1273.09c-.82,0-1.62-.43-2.05-1.2-4.39-7.81-7.02-17.43-7.82-28.6-.04-.57-.07-1.19-.11-1.86-.22-4.3-.55-10.8-4.18-11.94-.12-.04-42.19-13.32-46.99-14.84l1.41-4.47s46.69,14.74,46.98,14.84c6.73,2.13,7.18,10.92,7.45,16.18.03.63.06,1.23.1,1.76.75,10.47,3.18,19.43,7.23,26.63.64,1.13.23,2.56-.89,3.2-.36.2-.76.3-1.15.3Z"/>
            <g>
              <path class="cls-6" d="m606.27,1245.98c-5.02,0-19.14-1.73-58.5-12.18-1.25-.33-2-1.62-1.66-2.87.33-1.25,1.62-1.99,2.87-1.67,25.7,6.83,54.52,13.18,58.26,12,4.83-1.52,9.1-8.56,9.59-11.04-5.36-2.73-36.52-12.87-55.88-18.92-1.24-.39-1.93-1.7-1.54-2.94.39-1.24,1.7-1.92,2.94-1.54.14.04,14.22,4.45,28.27,9.07,29.28,9.64,29.87,10.74,30.5,11.9.71,1.32.58,3.12-.38,5.5-1.61,3.98-6.17,10.58-12.09,12.44-.36.11-1.05.23-2.37.23Zm11.16-15.4h.01-.01Z"/>
              <path class="cls-6" d="m589.44,1263.75c-19.52,0-62.2-10.14-64.23-10.62-1.26-.3-2.04-1.57-1.74-2.83.3-1.26,1.57-2.04,2.83-1.74,18.98,4.53,57.67,12.47,68.25,10.09,3.96-.89,9.61-9.21,11.13-13.01-13.65-1.68-55.67-11.14-57.55-11.57-1.26-.29-2.06-1.54-1.77-2.8.28-1.26,1.54-2.06,2.8-1.77.49.11,48.64,10.96,58.95,11.67,1.46.1,2.52,1.21,2.64,2.76.32,4.18-8.08,17.7-15.16,19.3-1.59.36-3.68.52-6.14.52Zm18.33-17.9h0,0Z"/>
              <path class="cls-6" d="m575.15,1278.81c-8.61,0-30.57-4.3-37.81-5.77-1.27-.26-2.09-1.5-1.83-2.76.26-1.27,1.49-2.09,2.77-1.83,16.69,3.38,35.56,6.4,38.26,5.61,11.26-3.39,9.38-11.72,9.3-12.08-.3-1.26.47-2.53,1.73-2.83,1.26-.3,2.53.47,2.83,1.73.03.13,2.96,13.02-12.5,17.67-.61.18-1.54.26-2.73.26Z"/>
            </g>
          </g>
        </g>
        <path class="cls-6" d="m1099.87,1313.98c-1.22,0-2.25-.95-2.34-2.19-1.56-22.96-8.47-38.84-14-48.12-5.98-10.05-11.68-14.75-11.73-14.79-1-.82-1.16-2.29-.34-3.3.81-1.01,2.29-1.16,3.29-.35.99.8,24.33,20.15,27.46,66.24.09,1.29-.89,2.41-2.18,2.5-.05,0-.11,0-.16,0Z"/>
        <path class="cls-6" d="m579.69,1214.19c-.27,0-.54-.05-.81-.15-17.56-6.48-16.93-22.99-16.92-23.15.07-1.29,1.19-2.29,2.46-2.22,1.29.07,2.29,1.17,2.22,2.45-.02.58-.38,13.27,13.86,18.52,1.22.45,1.84,1.8,1.39,3.01-.35.95-1.25,1.54-2.2,1.54Z"/>
      </g>
      <g>
        <path class="cls-4" d="m1626.98,1038.84l100.54-216.76,67.39-387.06,70.39,12.51-2.9,334.01c-.83,39.68-8.9,78.87-23.82,115.65l-76.03,187.47-135.57-45.82Z"/>
        <path class="cls-6" d="m1803.39,843.96c-.41,0-.82-.11-1.19-.33-57.29-33.95-72.87-20.04-73.02-19.89-.9.94-2.36.95-3.3.06-.94-.9-.95-2.4-.06-3.33.69-.72,17.51-17.16,78.77,19.14,1.11.66,1.48,2.1.82,3.21-.44.74-1.22,1.15-2.02,1.15Z"/>
        <polygon class="cls-6" points="1936.9 446.93 1617.3 266.96 1605.82 229.22 1519.04 180.36 1532.5 224.61 1487.68 236.05 1564.1 279.08 1611.15 274.3 1932.28 455.14 1936.9 446.93"/>
        <path class="cls-4" d="m1872.36,389.68c-1.15-8.22-15.49-18.48-24.4-24.11,5.33-4.86,8.13-10.85,4.71-12.85-5.78-3.39-55.4,1.6-64.27,6.74-8.87,5.14,6.5,75.57,6.5,75.57l70.39,12.51s8.75-45.86,7.07-57.85Z"/>
        <path class="cls-6" d="m1847.96,435.05c-1.01,0-1.94-.66-2.25-1.68-3.94-13.25-11.06-20.24-16.35-23.77-7.48-5-12.74-12.65-14.81-21.54l-3.1-13.36,2.36-.48c11.44-2.34,33.08-10.76,33.29-10.84,1.21-.47,2.57.13,3.04,1.33.47,1.21-.13,2.57-1.33,3.04-.84.33-19.61,7.63-31.71,10.55l2.02,8.71c1.79,7.72,6.36,14.37,12.84,18.7,5.93,3.96,13.9,11.74,18.24,26.33.37,1.24-.34,2.55-1.58,2.92-.22.07-.45.1-.67.1Z"/>
        <g>
          <path class="cls-6" d="m1827.82,393.36c-1.37,0-2.12-.38-2.7-.82-4.66-3.56-4.26-14.73-4.13-16.93.07-1.29,1.17-2.28,2.48-2.21,1.29.07,2.28,1.18,2.21,2.48-.24,4.2.29,11.03,2.14,12.8,2.7.32,15.9-5.23,33.06-14.97,1.13-.64,2.56-.25,3.2.88.64,1.13.24,2.56-.88,3.2-.08.05-8.05,4.56-16.4,8.65-11.09,5.43-16.24,6.93-18.96,6.93Zm.15-4.55h0,0Z"/>
          <path class="cls-6" d="m1836.32,406.71c-1.63,0-2.89-.26-3.65-.86-3.53-2.77-7.54-12.39-8.31-14.29-.49-1.2.09-2.57,1.29-3.05,1.2-.48,2.57.09,3.05,1.29,1.68,4.16,4.84,10.61,6.74,12.26,3.14.84,24.53-5.26,35.91-12.2,1.11-.67,2.55-.32,3.22.78.67,1.11.32,2.55-.78,3.22-6.63,4.04-28.09,12.84-37.48,12.84Z"/>
          <path class="cls-6" d="m1845.87,422.1c-.73,0-1.39-.06-1.94-.19-1.3-.3-7.77-2.54-8.02-17.41-.02-1.29,1.01-2.36,2.3-2.38.01,0,.03,0,.04,0,1.28,0,2.32,1.02,2.34,2.3.09,4.82,1.54,12.26,4.38,12.92,3.62.84,17.8-3.87,26.71-7.47,1.2-.49,2.57.09,3.05,1.29.49,1.2-.09,2.57-1.29,3.05-3.48,1.41-19.9,7.88-27.58,7.88Z"/>
        </g>
      </g>
      <g>
        <g>
          <g>
            <path class="cls-7" d="m1932.13,1151.18l-21.04-162.47-378.14,23.69-129.33,11.34c-17.01,0-33.21,3.45-47.95,9.68-51.65,21.85-81.13,76.76-72.26,132.13l43.99,519.81,433.53-2.14,2.34-502.31,168.86-29.74Z"/>
            <g class="cls-9">
              <rect class="cls-3" x="1251.46" y="1204.69" width="562.92" height="33.04" transform="translate(-97.88 134.15) rotate(-4.86)"/>
              <rect class="cls-3" x="1251.49" y="1286.71" width="562.92" height="33.04" transform="translate(-104.82 134.45) rotate(-4.86)"/>
              <rect class="cls-3" x="1251.52" y="1368.73" width="562.92" height="33.04" transform="translate(-111.76 134.74) rotate(-4.86)"/>
            </g>
          </g>
          <path class="cls-7" d="m1326.33,1051.17l-226.46,165.6,89.19,152.24,114.26-67.08c22.37-13.13,35.49-37.69,33.97-63.58l-10.97-187.18Z"/>
          <g>
            <path class="cls-6" d="m1763.27,1183.27c-1.3,0-2.35-1.05-2.35-2.35v-63.67c0-1.3,1.05-2.35,2.35-2.35s2.35,1.05,2.35,2.35v63.67c0,1.3-1.05,2.35-2.35,2.35Z"/>
            <path class="cls-6" d="m1303.33,1304.28c-.71,0-1.41-.32-1.87-.93-.78-1.03-.58-2.5.45-3.29h0c.11-.08,11.23-8.64,20.12-24.38,11.87-21.01,14.38-44.21,7.46-68.94-.35-1.25.38-2.54,1.63-2.89,1.25-.35,2.54.38,2.89,1.63,9.09,32.45.67,57.44-7.99,72.69-9.38,16.52-20.79,25.27-21.27,25.63-.42.32-.92.48-1.41.48Z"/>
          </g>
        </g>
        <g>
          <g>
            <path class="cls-4" d="m1623.64,910.34c7.96-23.67,5.39-51.01.36-73.52-10.51-47.05-15.87-95.1-16.83-143.29l-.28-13.94-220.19,34.06c-.27,86.95,16.01,145.27,38.29,184.27l9.33,122.75s-46.92,2.05-67.39,8.63c0,0,11.09,97.64,147.69,92.53,0,0,91.35-10.72,104.86-114.84l-86.53,5.42c.02.11.05.21,0,0l-9.73-39.38c43.44,6.59,86.04-19.91,100.42-62.68Z"/>
            <path class="cls-4" d="m1532.95,1012.4h0c-.02-.11-.05-.21,0,0Z"/>
          </g>
          <path class="cls-6" d="m1523.22,975.37c-.13,0-.25,0-.38-.03-1.38-.23-34.06-5.77-59.46-27.72-.98-.85-1.09-2.33-.24-3.31.85-.98,2.33-1.09,3.31-.24,24.37,21.05,56.82,26.58,57.15,26.64,1.28.21,2.14,1.41,1.94,2.69-.19,1.15-1.18,1.97-2.31,1.97Z"/>
          <path class="cls-6" d="m1411.53,718.39s15.15,76.98-1.45,92.05c-16.6,15.07-26.35-7.46-26.35-7.46,0,0-38.45-75.2,1-99.25,24.17-14.74,26.8,14.66,26.8,14.66Z"/>
          <ellipse class="cls-4" cx="1390.19" cy="807.02" rx="24.9" ry="36.5" transform="translate(-107.02 221.98) rotate(-8.79)"/>
          <g>
            <path class="cls-6" d="m1534.88,855.66c-1.14,0-2.14-.83-2.32-1.99-.2-1.28.68-2.48,1.96-2.68l20.33-3.14c1.76-.27,3.25-1.32,4.1-2.89.85-1.56.91-3.39.18-5.01l-27.49-60.96c-.53-1.18,0-2.57,1.17-3.1,1.18-.53,2.57,0,3.1,1.17l27.49,60.96c1.34,2.97,1.22,6.31-.34,9.17-1.55,2.86-4.29,4.79-7.51,5.29l-20.33,3.15c-.12.02-.24.03-.36.03Z"/>
            <path class="cls-6" d="m1508.02,788.79c.95,6.17-3.28,11.95-9.45,12.91-6.17.96-11.95-3.28-12.91-9.45-.96-6.17,3.28-11.95,9.45-12.91s11.95,3.28,12.91,9.45Z"/>
            <path class="cls-6" d="m1587.43,774.25c.95,6.17-3.28,11.95-9.45,12.91-6.17.96-11.95-3.28-12.91-9.45-.96-6.17,3.28-11.95,9.45-12.91s11.95,3.28,12.91,9.45Z"/>
            <path class="cls-6" d="m1458.57,784.03c-2.61,0-5.01-1.71-5.76-4.35-.91-3.19.93-6.51,4.11-7.42,34.15-9.81,40.01-22.94,40.06-23.07-.05.12-.07.18-.07.18l11.34,3.92c-.66,1.9-7.58,18.89-48.03,30.5-.55.16-1.11.23-1.66.23Z"/>
            <path class="cls-6" d="m1549.39,753.47c-.87,0-1.75-.19-2.59-.59-2.99-1.43-4.25-5.02-2.81-8,5.08-10.58,21-29.16,44.9-23.75,3.23.73,5.26,3.94,4.53,7.18-.73,3.23-3.95,5.26-7.18,4.53-20.67-4.67-31.33,17.02-31.44,17.24-1.03,2.15-3.18,3.41-5.41,3.41Z"/>
            <path class="cls-6" d="m1549.2,883.23c-19.79,0-24.72-12.52-24.96-13.15-.45-1.21.17-2.56,1.38-3.02,1.21-.45,2.55.16,3.01,1.36.25.63,6.09,14.6,32.85,8.63,1.26-.29,2.52.51,2.8,1.78.28,1.26-.51,2.52-1.78,2.8-5.04,1.13-9.46,1.6-13.3,1.6Z"/>
          </g>
          <path class="cls-6" d="m1373.17,717.79c-6.86-24.86.21-53.08,17.96-71.77,17.76-18.69,45.58-27.19,70.75-21.62,1.7.38,3.47.81,5.17.42,1.91-.44,3.42-1.85,4.86-3.18,20.14-18.52,45.76-30.48,72.39-36.76,26.63-6.28,54.31-7.09,81.6-5.24,5.33,19.87,10.61,40.62,9.18,61.14s-10,41.47-26.79,53.35c-5.91,4.18-12.61,7.1-19.43,9.49-24.16,8.46-50.05,10.42-75.6,11.98-45.65,2.79-94.37,1.4-140.1,2.17Z"/>
          <path class="cls-6" d="m1405.55,820.16c-1.08,0-2.06-.75-2.29-1.86-6-28.09-17.57-37.13-17.69-37.22-1.03-.78-1.24-2.25-.47-3.28.77-1.03,2.23-1.25,3.27-.48.53.39,13.06,9.96,19.47,40,.27,1.27-.54,2.51-1.8,2.78-.16.04-.33.05-.49.05Z"/>
        </g>
      </g>
      <path class="cls-6" d="m2930.25,1689.37H4c-2.21,0-4-1.79-4-4s1.79-4,4-4h2926.25c2.21,0,4,1.79,4,4s-1.79,4-4,4Z"/>
      <g>
        <path class="cls-6" d="m579.68,1154.72c-.38,0-.74-.21-.91-.58-1.69-3.62-3.36-7.3-4.96-10.95-.22-.51,0-1.1.51-1.32.51-.22,1.1,0,1.32.51,1.6,3.63,3.26,7.31,4.95,10.91.23.5.02,1.1-.48,1.33-.14.06-.28.09-.42.09Zm-9.67-21.97c-.39,0-.77-.23-.92-.62-1.53-3.7-3.04-7.46-4.48-11.16-.2-.52.06-1.09.57-1.3.52-.2,1.09.06,1.29.57,1.43,3.69,2.93,7.43,4.46,11.12.21.51-.03,1.1-.54,1.31-.13.05-.25.08-.38.08Zm-8.69-22.37c-.41,0-.79-.25-.94-.66-1.36-3.76-2.7-7.58-3.97-11.35-.18-.52.1-1.09.63-1.27.52-.18,1.09.11,1.27.63,1.27,3.76,2.6,7.56,3.95,11.31.19.52-.08,1.09-.6,1.28-.11.04-.23.06-.34.06Zm-7.66-22.74c-.43,0-.82-.27-.95-.7-1.19-3.83-2.35-7.7-3.44-11.52-.15-.53.16-1.08.69-1.24.53-.15,1.08.16,1.24.69,1.09,3.8,2.24,7.66,3.43,11.47.16.53-.13,1.09-.66,1.25-.1.03-.2.04-.3.04Zm-6.61-23.07c-.44,0-.85-.3-.97-.75-1.01-3.87-1.99-7.79-2.9-11.67-.13-.54.21-1.08.74-1.2.54-.12,1.08.21,1.2.74.91,3.86,1.88,7.77,2.89,11.62.14.53-.18,1.08-.71,1.22-.08.02-.17.03-.25.03Zm-5.52-23.35c-.46,0-.88-.32-.98-.79-.83-3.91-1.62-7.88-2.35-11.79-.1-.54.26-1.07.8-1.17.54-.1,1.06.26,1.17.8.73,3.9,1.51,7.85,2.34,11.74.11.54-.23,1.07-.77,1.19-.07.01-.14.02-.21.02Zm-4.4-23.59c-.48,0-.91-.35-.99-.84-.64-3.94-1.24-7.94-1.78-11.89-.08-.55.31-1.05.85-1.13.55-.08,1.05.31,1.13.85.54,3.93,1.14,7.92,1.78,11.84.09.54-.28,1.06-.83,1.15-.05,0-.11.01-.16.01Zm-3.27-23.77c-.5,0-.93-.38-.99-.89-.45-3.98-.86-8-1.21-11.96-.05-.55.36-1.04.91-1.08.56-.05,1.04.36,1.08.91.35,3.94.76,7.95,1.21,11.91.06.55-.33,1.04-.88,1.11-.04,0-.08,0-.11,0Zm-2.13-23.9c-.52,0-.96-.41-1-.93-.26-3.99-.47-8.02-.64-12-.02-.55.41-1.02.96-1.04.57-.04,1.02.41,1.04.96.16,3.96.38,7.99.63,11.96.04.55-.38,1.03-.93,1.06-.02,0-.04,0-.07,0Zm-.98-23.97c-.54,0-.99-.44-1-.98-.05-2.85-.07-5.75-.07-8.62,0-1.14,0-2.28.01-3.41,0-.55.45-.99,1-.99h0c.55,0,1,.45.99,1.01,0,1.13-.01,2.27-.01,3.4,0,2.85.02,5.74.07,8.58,0,.55-.43,1.01-.98,1.02h-.02Zm.16-24.01h-.03c-.55-.02-.99-.48-.97-1.03.12-3.98.29-8.03.51-12.02.03-.55.5-.97,1.05-.94.55.03.97.5.94,1.05-.22,3.98-.39,8-.51,11.97-.02.54-.46.97-1,.97Zm1.31-23.97s-.05,0-.08,0c-.55-.04-.96-.53-.92-1.08.31-3.97.68-8,1.09-11.98.06-.55.54-.94,1.1-.89.55.06.95.55.89,1.1-.41,3.97-.77,7.98-1.08,11.93-.04.52-.48.92-1,.92Zm2.46-23.88s-.08,0-.13,0c-.55-.07-.94-.57-.87-1.12.5-3.96,1.06-7.97,1.66-11.91.08-.55.6-.92,1.14-.84.55.08.92.59.84,1.14-.6,3.92-1.15,7.92-1.65,11.86-.06.5-.5.87-.99.87Zm3.6-23.73c-.06,0-.12,0-.17-.02-.54-.1-.91-.61-.81-1.16.69-3.93,1.44-7.91,2.23-11.82.11-.54.64-.89,1.18-.78.54.11.89.64.78,1.18-.78,3.89-1.53,7.85-2.22,11.77-.09.48-.51.83-.98.83Zm4.73-23.53c-.07,0-.15,0-.22-.02-.54-.12-.88-.66-.76-1.2.88-3.88,1.81-7.81,2.78-11.7.13-.54.67-.86,1.21-.73.54.13.86.68.73,1.21-.97,3.87-1.9,7.79-2.77,11.65-.1.46-.52.78-.97.78Zm5.83-23.28c-.09,0-.18-.01-.27-.04-.53-.15-.85-.7-.7-1.23,1.06-3.85,2.18-7.74,3.33-11.55.16-.53.72-.83,1.25-.67.53.16.83.72.67,1.25-1.14,3.8-2.26,7.67-3.32,11.51-.12.44-.52.73-.96.73Zm6.91-22.98c-.1,0-.21-.02-.31-.05-.52-.17-.81-.74-.64-1.26,1.24-3.8,2.54-7.63,3.86-11.39.18-.52.75-.79,1.28-.61.52.18.79.75.61,1.28-1.32,3.74-2.61,7.55-3.84,11.34-.14.42-.53.69-.95.69Zm7.96-22.64c-.12,0-.24-.02-.35-.06-.52-.19-.78-.77-.58-1.29,1.4-3.71,2.87-7.48,4.37-11.2.21-.51.79-.76,1.3-.55.51.21.76.79.55,1.3-1.49,3.71-2.96,7.46-4.35,11.16-.15.4-.53.65-.94.65Zm8.97-22.25c-.13,0-.27-.03-.39-.08-.51-.22-.74-.81-.52-1.31,1.57-3.66,3.21-7.36,4.86-10.99.23-.5.82-.72,1.32-.5.5.23.73.82.5,1.32-1.65,3.62-3.28,7.3-4.84,10.95-.16.38-.53.61-.92.61Zm9.94-21.84c-.15,0-.29-.03-.43-.1-.5-.24-.71-.84-.47-1.34,1.73-3.59,3.52-7.21,5.33-10.77.25-.49.85-.69,1.34-.44.49.25.69.85.44,1.34-1.8,3.55-3.59,7.16-5.31,10.73-.17.36-.53.57-.9.57Z"/>
        <path class="cls-6" d="m585.61,1167.04c-.37,0-.72-.2-.9-.56-1.79-3.6-3.55-7.24-5.23-10.82-.24-.5-.02-1.1.48-1.33.5-.23,1.1-.02,1.33.48,1.68,3.57,3.43,7.2,5.21,10.79.25.49.04,1.09-.45,1.34-.14.07-.29.1-.44.1Z"/>
        <path class="cls-6" d="m1417.86,1598.76h-2.15c-.55,0-1-.45-1-1,0-.55.45-1,1-1h2.15c3.29,0,6.57-.01,9.85-.04h0c.55,0,1,.44,1,.99,0,.55-.44,1-.99,1.01-3.28.03-6.57.04-9.86.04Zm-14.15-.08h-.01c-4.01-.05-8.01-.11-12.01-.2-.55-.01-.99-.47-.98-1.02.01-.55.47-1.01,1.02-.98,3.99.09,7.99.15,11.99.2.55,0,.99.46.99,1.01,0,.55-.45.99-1,.99Zm35.98-.11c-.54,0-.99-.44-1-.98,0-.55.43-1.01.98-1.02,3.99-.07,7.98-.16,11.95-.27.55-.01,1.01.42,1.03.97.02.55-.42,1.01-.97,1.03-3.98.11-7.98.2-11.97.27h-.02Zm-59.98-.4h-.03c-4.01-.13-8.01-.27-12-.44-.55-.02-.98-.49-.96-1.04.02-.55.49-.98,1.04-.96,3.99.17,7.98.31,11.98.44.55.02.99.48.97,1.03-.02.54-.46.97-1,.97Zm83.93-.26c-.53,0-.98-.42-1-.96-.02-.55.41-1.02.96-1.04,4-.15,7.99-.32,11.98-.51.55-.01,1.02.4,1.05.95.03.55-.4,1.02-.95,1.05-3.99.19-7.99.36-12,.51-.01,0-.03,0-.04,0Zm-107.91-.73s-.03,0-.05,0c-4-.21-8-.43-11.99-.68-.55-.03-.97-.51-.94-1.06s.52-.95,1.06-.94c3.98.25,7.97.47,11.97.68.55.03.98.5.95,1.05-.03.53-.47.95-1,.95Zm131.88-.42c-.53,0-.97-.41-1-.94-.03-.55.39-1.02.94-1.06,4-.23,7.99-.48,11.97-.76.54-.02,1.03.38,1.07.93.04.55-.38,1.03-.93,1.07-3.99.27-7.98.52-11.99.76-.02,0-.04,0-.06,0Zm-155.84-1.06s-.05,0-.07,0c-4-.29-7.99-.59-11.97-.92-.55-.05-.96-.53-.92-1.08.05-.55.52-.95,1.08-.91,3.98.33,7.96.63,11.96.92.55.04.97.52.93,1.07-.04.53-.48.93-1,.93Zm179.78-.57c-.52,0-.96-.4-1-.92-.04-.55.37-1.03.92-1.08,3.99-.31,7.97-.64,11.95-1,.56-.05,1.04.36,1.08.91s-.36,1.04-.91,1.08c-3.98.35-7.97.68-11.97,1-.03,0-.05,0-.08,0Zm-203.7-1.39s-.06,0-.09,0c-3.99-.37-7.98-.76-11.95-1.16-.55-.06-.95-.55-.89-1.1.06-.55.55-.95,1.1-.89,3.97.41,7.95.79,11.93,1.16.55.05.95.54.9,1.09-.05.52-.48.91-1,.91Zm227.6-.73c-.51,0-.94-.39-.99-.9-.05-.55.35-1.04.9-1.09,3.98-.39,7.96-.81,11.93-1.24.54-.06,1.04.34,1.1.89.06.55-.34,1.04-.89,1.1-3.97.43-7.95.85-11.95,1.24-.03,0-.07,0-.1,0Zm-251.48-1.72s-.08,0-.11,0c-3.98-.45-7.96-.92-11.93-1.41-.55-.07-.94-.57-.87-1.11.07-.55.57-.95,1.12-.87,3.96.49,7.93.96,11.91,1.41.55.06.94.56.88,1.11-.06.51-.49.89-.99.89Zm275.34-.88c-.5,0-.93-.37-.99-.88-.07-.55.33-1.05.88-1.11,3.97-.47,7.94-.97,11.9-1.48.55-.08,1.05.31,1.12.86.07.55-.31,1.05-.86,1.12-3.96.52-7.94,1.01-11.92,1.49-.04,0-.08,0-.12,0Zm-299.16-2.05s-.09,0-.13,0c-3.97-.53-7.94-1.08-11.9-1.65-.55-.08-.93-.59-.85-1.13.08-.55.58-.92,1.13-.85,3.95.57,7.91,1.12,11.88,1.65.55.07.93.58.86,1.12-.07.5-.5.87-.99.87Zm322.95-1.04c-.49,0-.92-.36-.99-.86-.08-.55.3-1.05.85-1.13,3.96-.56,7.92-1.13,11.86-1.73.54-.08,1.06.29,1.14.84.08.55-.29,1.06-.84,1.14-3.95.6-7.91,1.18-11.88,1.73-.05,0-.09,0-.14,0Zm-346.71-2.39c-.05,0-.1,0-.15-.01-3.96-.61-7.92-1.25-11.86-1.9-.54-.09-.91-.6-.82-1.15.09-.55.6-.92,1.15-.82,3.94.65,7.88,1.28,11.84,1.9.55.08.92.6.84,1.14-.08.49-.5.85-.99.85Zm370.44-1.2c-.48,0-.91-.35-.99-.84-.09-.55.28-1.06.83-1.15,3.95-.64,7.89-1.3,11.83-1.98.54-.09,1.06.27,1.16.82.09.54-.27,1.06-.82,1.16-3.94.68-7.89,1.34-11.85,1.98-.05,0-.11.01-.16.01Zm-394.12-2.73c-.06,0-.12,0-.17-.02-3.95-.7-7.89-1.41-11.82-2.15-.54-.1-.9-.62-.8-1.17.1-.54.63-.89,1.17-.8,3.92.74,7.85,1.45,11.8,2.15.54.1.91.61.81,1.16-.09.49-.51.83-.98.83Zm417.77-1.36c-.47,0-.89-.34-.98-.82-.1-.54.26-1.06.8-1.16,3.94-.72,7.86-1.46,11.78-2.22.54-.11,1.07.25,1.17.79.11.54-.25,1.07-.79,1.17-3.92.76-7.86,1.51-11.8,2.23-.06.01-.12.02-.18.02Zm-441.36-3.06c-.06,0-.13,0-.2-.02-3.93-.78-7.86-1.58-11.77-2.4-.54-.11-.89-.64-.77-1.18.11-.54.64-.89,1.18-.77,3.91.82,7.82,1.62,11.75,2.4.54.11.89.63.79,1.17-.09.48-.51.81-.98.81Zm464.91-1.52c-.46,0-.88-.33-.98-.8-.11-.54.24-1.07.78-1.18,3.92-.8,7.83-1.63,11.73-2.47.54-.12,1.07.23,1.19.77.12.54-.23,1.07-.77,1.19-3.91.84-7.82,1.67-11.75,2.48-.07.01-.14.02-.2.02Zm-488.4-3.4c-.07,0-.14,0-.22-.02-3.92-.86-7.82-1.75-11.72-2.65-.54-.12-.87-.66-.75-1.2s.66-.88,1.2-.75c3.89.9,7.78,1.78,11.69,2.65.54.12.88.65.76,1.19-.1.47-.52.78-.98.78Zm511.86-1.67c-.46,0-.87-.31-.97-.78-.12-.54.21-1.08.75-1.2,3.9-.89,7.8-1.8,11.68-2.73.54-.12,1.08.2,1.2.74.13.54-.2,1.08-.74,1.2-3.89.93-7.79,1.84-11.7,2.73-.08.02-.15.03-.22.03Zm-535.24-3.75c-.08,0-.16,0-.24-.03-3.91-.95-7.83-1.93-11.65-2.9-.54-.14-.86-.68-.72-1.22.14-.54.68-.86,1.22-.72,3.82.97,7.73,1.95,11.63,2.9.54.13.87.67.74,1.21-.11.46-.52.76-.97.76Zm558.58-1.83c-.45,0-.86-.3-.97-.76-.13-.54.19-1.08.73-1.21,3.88-.97,7.75-1.97,11.61-2.98.53-.14,1.08.18,1.22.71.14.53-.18,1.08-.71,1.22-3.87,1.01-7.74,2.01-11.63,2.98-.08.02-.16.03-.24.03Zm-581.84-4.09c-.09,0-.17-.01-.26-.03-3.88-1.03-7.74-2.09-11.59-3.16-.53-.15-.84-.7-.69-1.23.15-.53.7-.84,1.23-.69,3.84,1.07,7.7,2.12,11.57,3.15.53.14.85.69.71,1.22-.12.45-.52.74-.97.74Zm605.05-2c-.44,0-.84-.29-.96-.74-.15-.53.17-1.08.7-1.23,3.84-1.05,7.73-2.14,11.54-3.23.53-.15,1.09.15,1.24.69.15.53-.16,1.08-.69,1.24-3.82,1.09-7.72,2.19-11.57,3.24-.09.02-.18.04-.27.04Zm-628.17-4.44c-.09,0-.19-.01-.28-.04-3.86-1.12-7.73-2.27-11.52-3.41-.53-.16-.83-.72-.67-1.25.16-.53.72-.83,1.25-.67,3.78,1.14,7.65,2.29,11.49,3.41.53.15.84.71.68,1.24-.13.44-.53.72-.96.72Zm651.24-2.16c-.43,0-.83-.28-.96-.71-.16-.53.14-1.09.67-1.24,3.84-1.14,7.66-2.31,11.47-3.49.52-.16,1.09.13,1.25.66.16.53-.13,1.09-.66,1.25-3.82,1.18-7.65,2.35-11.49,3.5-.1.03-.19.04-.29.04Zm-674.22-4.79c-.1,0-.2-.01-.3-.05-3.83-1.21-7.68-2.44-11.44-3.67-.52-.17-.81-.74-.64-1.26.17-.52.74-.81,1.26-.64,3.75,1.23,7.59,2.46,11.41,3.67.53.17.82.73.65,1.25-.13.43-.53.7-.95.7Zm697.14-2.33c-.42,0-.81-.27-.95-.69-.17-.53.12-1.09.64-1.26,3.83-1.24,7.66-2.5,11.39-3.75.52-.17,1.09.11,1.27.63.18.52-.11,1.09-.63,1.27-3.74,1.25-7.58,2.52-11.41,3.75-.1.03-.21.05-.31.05Zm-719.95-5.14c-.11,0-.22-.02-.32-.05-3.75-1.28-7.57-2.6-11.35-3.93-.52-.18-.79-.75-.61-1.28.18-.52.75-.79,1.28-.61,3.77,1.33,7.58,2.65,11.33,3.92.52.18.8.75.62,1.27-.14.42-.53.68-.95.68Zm742.7-2.49c-.41,0-.8-.26-.94-.67-.18-.52.09-1.09.62-1.27,3.78-1.32,7.58-2.66,11.3-4.01.52-.19,1.09.08,1.28.6.19.52-.08,1.09-.6,1.28-3.72,1.35-7.53,2.7-11.32,4.01-.11.04-.22.06-.33.06Zm-765.33-5.49c-.11,0-.23-.02-.34-.06-3.73-1.36-7.51-2.77-11.26-4.19-.52-.2-.78-.77-.58-1.29.2-.52.77-.78,1.29-.58,3.74,1.42,7.52,2.82,11.23,4.18.52.19.79.76.6,1.28-.15.41-.53.66-.94.66Zm787.9-2.66c-.41,0-.79-.25-.94-.65-.19-.52.07-1.09.59-1.29,3.74-1.4,7.51-2.84,11.2-4.27.51-.2,1.09.06,1.29.57.2.51-.06,1.09-.57,1.29-3.7,1.43-7.48,2.87-11.22,4.28-.12.04-.23.06-.35.06Zm-810.35-5.85c-.12,0-.25-.02-.37-.07-3.74-1.47-7.49-2.97-11.16-4.46-.51-.21-.76-.79-.55-1.3.21-.51.79-.76,1.3-.55,3.65,1.49,7.4,2.98,11.13,4.45.51.2.77.78.56,1.3-.15.39-.53.63-.93.63Zm832.72-2.82c-.4,0-.77-.24-.93-.63-.21-.51.04-1.09.56-1.3,3.71-1.49,7.45-3.02,11.1-4.53.51-.21,1.1.03,1.31.54.21.51-.03,1.1-.54,1.31-3.66,1.52-7.4,3.05-11.12,4.54-.12.05-.25.07-.37.07Zm-854.96-6.21c-.13,0-.26-.03-.39-.08-3.66-1.54-7.37-3.13-11.05-4.72-.51-.22-.74-.81-.52-1.32.22-.51.81-.74,1.32-.52,3.66,1.59,7.37,3.18,11.02,4.71.51.21.75.8.53,1.31-.16.38-.53.61-.92.61Zm877.12-2.99c-.39,0-.76-.23-.92-.61-.22-.51.02-1.1.52-1.31,3.7-1.59,7.4-3.2,10.99-4.8.51-.23,1.09,0,1.32.51.22.5,0,1.1-.51,1.32-3.6,1.6-7.3,3.21-11.01,4.81-.13.05-.26.08-.39.08Zm-899.13-6.57c-.14,0-.28-.03-.41-.09-3.7-1.66-7.37-3.34-10.93-4.99-.5-.23-.72-.83-.49-1.33.23-.5.83-.72,1.33-.49,3.55,1.65,7.22,3.32,10.91,4.98.5.23.73.82.5,1.32-.17.37-.53.59-.91.59Zm921.07-3.16c-.38,0-.74-.22-.91-.58-.23-.5,0-1.1.49-1.33,3.6-1.65,7.26-3.35,10.87-5.06.5-.24,1.1-.02,1.33.48.24.5.02,1.1-.48,1.33-3.62,1.71-7.28,3.42-10.89,5.07-.14.06-.28.09-.42.09Zm-942.84-6.94c-.14,0-.29-.03-.43-.1-3.59-1.72-7.23-3.49-10.8-5.25-.49-.25-.7-.84-.45-1.34.24-.5.84-.7,1.34-.45,3.57,1.76,7.2,3.53,10.78,5.24.5.24.71.84.47,1.33-.17.36-.53.57-.9.57Zm964.54-3.33c-.37,0-.73-.21-.9-.56-.24-.5-.04-1.1.46-1.34,3.6-1.76,7.21-3.55,10.74-5.33.49-.25,1.09-.05,1.34.44.25.49.05,1.09-.44,1.34-3.53,1.78-7.15,3.58-10.76,5.34-.14.07-.29.1-.44.1Zm-986.05-7.3c-.15,0-.31-.04-.45-.11-3.56-1.82-7.15-3.68-10.67-5.53-.49-.26-.68-.86-.42-1.35.26-.49.86-.68,1.35-.42,3.51,1.84,7.09,3.7,10.64,5.51.49.25.69.85.44,1.34-.18.35-.53.55-.89.55Zm1007.48-3.51c-.36,0-.71-.2-.89-.54-.25-.49-.06-1.09.42-1.35,3.53-1.83,7.09-3.72,10.6-5.6.49-.26,1.09-.08,1.35.41.26.49.08,1.09-.41,1.35-3.51,1.89-7.09,3.77-10.62,5.61-.15.08-.31.11-.46.11Zm-1028.72-7.67c-.16,0-.32-.04-.48-.12-3.52-1.91-7.06-3.86-10.52-5.8-.48-.27-.65-.88-.38-1.36.27-.48.88-.65,1.36-.38,3.46,1.94,6.99,3.88,10.5,5.79.49.26.66.87.4,1.36-.18.33-.52.52-.88.52Zm1049.87-3.68c-.35,0-.69-.19-.88-.52-.27-.48-.09-1.09.39-1.36,3.47-1.92,6.99-3.89,10.45-5.87.48-.28,1.09-.11,1.36.37.27.48.11,1.09-.37,1.36-3.47,1.98-7,3.96-10.47,5.89-.15.08-.32.12-.48.12Zm-1070.81-8.04c-.17,0-.34-.04-.5-.13-3.49-2.02-6.98-4.06-10.37-6.07-.47-.28-.63-.9-.35-1.37.28-.47.9-.63,1.37-.35,3.38,2.01,6.86,4.05,10.34,6.06.48.28.64.89.37,1.37-.19.32-.52.5-.87.5Zm1091.65-3.85c-.34,0-.68-.18-.86-.49-.28-.48-.12-1.09.35-1.37,3.46-2.04,6.93-4.11,10.29-6.15.47-.28,1.09-.14,1.37.34.29.47.13,1.09-.34,1.37-3.37,2.04-6.84,4.12-10.31,6.16-.16.09-.33.14-.51.14Zm-1112.28-8.42c-.18,0-.36-.05-.52-.15-3.43-2.1-6.86-4.24-10.2-6.35-.47-.3-.61-.91-.31-1.38.3-.47.91-.61,1.38-.31,3.33,2.11,6.76,4.24,10.18,6.33.47.29.62.9.33,1.38-.19.31-.52.48-.85.48Zm1132.8-4.03c-.33,0-.66-.17-.85-.47-.29-.47-.15-1.09.32-1.38,3.37-2.1,6.77-4.26,10.12-6.42.46-.3,1.08-.16,1.38.3.3.46.16,1.08-.3,1.38-3.36,2.16-6.77,4.33-10.14,6.44-.17.1-.35.15-.53.15Zm-1153.09-8.79c-.19,0-.38-.05-.54-.16-3.35-2.18-6.72-4.41-10.02-6.63-.46-.31-.58-.93-.27-1.39.31-.46.93-.58,1.39-.27,3.29,2.21,6.66,4.44,10,6.61.46.3.59.92.29,1.38-.19.29-.51.45-.84.45Zm1173.26-4.21c-.32,0-.64-.16-.83-.45-.31-.46-.18-1.08.28-1.39,3.34-2.22,6.69-4.47,9.94-6.7.46-.31,1.08-.19,1.39.26.31.45.2,1.08-.26,1.39-3.26,2.23-6.61,4.49-9.96,6.72-.17.11-.36.17-.55.17Zm-1193.19-9.17c-.2,0-.39-.06-.57-.18-3.31-2.29-6.62-4.61-9.83-6.91-.45-.32-.55-.95-.23-1.4.32-.45.95-.55,1.39-.23,3.21,2.29,6.51,4.6,9.81,6.89.45.31.57.94.25,1.39-.19.28-.51.43-.82.43Zm1212.99-4.38c-.31,0-.62-.15-.82-.42-.32-.45-.21-1.08.24-1.39,3.24-2.29,6.52-4.63,9.74-6.98.45-.33,1.07-.23,1.4.22.33.45.23,1.07-.22,1.4-3.23,2.35-6.52,4.7-9.77,7-.17.12-.38.18-.58.18Zm-1232.53-9.55c-.21,0-.41-.06-.59-.19-3.22-2.37-6.46-4.79-9.63-7.19-.44-.33-.53-.96-.19-1.4.33-.44.96-.52,1.4-.19,3.16,2.39,6.39,4.8,9.6,7.17.44.33.54.95.21,1.4-.2.27-.5.41-.81.41Zm1251.94-4.56c-.3,0-.6-.14-.8-.4-.33-.44-.24-1.07.2-1.4,3.16-2.36,6.36-4.81,9.54-7.26.44-.34,1.07-.26,1.4.18.34.44.26,1.07-.18,1.4-3.18,2.46-6.4,4.91-9.56,7.28-.18.13-.39.2-.6.2Zm-1271.07-9.93c-.22,0-.43-.07-.62-.21-3.17-2.47-6.33-4.99-9.41-7.47-.43-.35-.5-.98-.15-1.41.35-.43.98-.5,1.41-.15,3.07,2.47,6.23,4.98,9.39,7.45.44.34.51.97.17,1.4-.2.25-.49.38-.79.38Zm1290.06-4.74c-.29,0-.59-.13-.78-.38-.34-.43-.27-1.06.16-1.41,3.11-2.48,6.25-5.02,9.32-7.54.43-.35,1.06-.29,1.41.14.35.43.29,1.06-.14,1.41-3.08,2.53-6.22,5.07-9.34,7.56-.18.15-.4.22-.62.22Zm-1308.74-10.32c-.23,0-.45-.08-.64-.23-3.05-2.53-6.14-5.14-9.18-7.75-.42-.36-.47-.99-.11-1.41.36-.42.99-.47,1.41-.11,3.04,2.6,6.12,5.2,9.16,7.73.42.35.48.98.13,1.41-.2.24-.48.36-.77.36Zm1327.28-4.92c-.28,0-.57-.12-.76-.35-.36-.42-.31-1.05.12-1.41,3.04-2.58,6.09-5.21,9.08-7.82.41-.37,1.05-.32,1.41.09.36.42.32,1.05-.09,1.41-2.99,2.62-6.05,5.26-9.1,7.84-.19.16-.42.24-.65.24Zm-1345.5-10.7c-.24,0-.47-.08-.66-.25-3-2.66-6.01-5.36-8.93-8.04-.41-.37-.44-1-.06-1.41.37-.41,1.01-.44,1.41-.06,2.92,2.67,5.92,5.36,8.91,8.01.41.37.45,1,.09,1.41-.2.22-.47.34-.75.34Zm1363.55-5.1c-.27,0-.54-.11-.74-.33-.37-.41-.34-1.04.07-1.41,2.95-2.66,5.92-5.39,8.83-8.1.4-.38,1.04-.36,1.41.05.38.4.35,1.04-.05,1.41-2.92,2.72-5.9,5.46-8.85,8.13-.19.17-.43.26-.67.26Zm-1381.27-11.09c-.25,0-.49-.09-.69-.27-2.89-2.73-5.81-5.53-8.67-8.32-.4-.39-.4-1.02-.02-1.41.39-.4,1.02-.4,1.41-.02,2.85,2.78,5.76,5.57,8.65,8.3.4.38.42,1.01.04,1.41-.2.21-.46.31-.73.31Zm1398.81-5.28c-.26,0-.52-.1-.72-.31-.38-.4-.37-1.03.03-1.41,2.9-2.8,5.78-5.62,8.56-8.39.39-.39,1.02-.39,1.42,0,.39.39.39,1.03,0,1.41-2.79,2.78-5.68,5.61-8.58,8.41-.19.19-.44.28-.69.28Zm-1416-11.49c-.26,0-.51-.1-.71-.3-1.69-1.7-3.37-3.41-5.04-5.13-.39-.4-.38-1.03.02-1.41.4-.39,1.03-.38,1.41.02,1.66,1.71,3.34,3.42,5.02,5.11.39.39.39,1.03,0,1.41-.19.19-.45.29-.7.29Zm1433-5.45c-.25,0-.5-.09-.7-.28-.4-.38-.41-1.02-.02-1.41,2.76-2.84,5.54-5.75,8.27-8.67.38-.4,1.01-.42,1.41-.04.4.38.42,1.01.04,1.41-2.74,2.92-5.53,5.84-8.3,8.69-.2.2-.46.3-.72.3Zm16.42-17.5c-.24,0-.48-.09-.67-.26-.41-.37-.44-1-.07-1.41,2.67-2.95,5.36-5.96,7.97-8.95.37-.42,1-.46,1.41-.09.42.36.46,1,.09,1.41-2.62,3-5.31,6.01-7.99,8.97-.2.22-.47.33-.74.33Zm15.8-18.06c-.23,0-.46-.08-.64-.24-.42-.36-.47-.99-.12-1.41,2.57-3.04,5.14-6.15,7.65-9.22.35-.43.98-.49,1.41-.14.43.35.49.98.14,1.41-2.51,3.09-5.09,6.2-7.67,9.25-.2.23-.48.35-.76.35Zm15.15-18.61c-.22,0-.43-.07-.62-.21-.43-.34-.51-.97-.17-1.4,2.46-3.14,4.92-6.33,7.3-9.5.33-.44.96-.53,1.4-.2.44.33.53.96.2,1.4-2.39,3.17-4.86,6.38-7.33,9.53-.2.25-.49.38-.79.38Zm14.45-19.16c-.2,0-.41-.06-.59-.19-.45-.32-.55-.95-.22-1.4,2.34-3.23,4.68-6.51,6.94-9.77.32-.45.94-.57,1.39-.25.45.32.57.94.25,1.39-2.27,3.26-4.61,6.56-6.96,9.8-.2.27-.5.41-.81.41Zm13.71-19.69c-.19,0-.38-.05-.55-.17-.46-.31-.58-.93-.28-1.39,2.22-3.32,4.42-6.7,6.55-10.03.3-.47.92-.6,1.38-.3.46.3.6.92.3,1.38-2.14,3.34-4.35,6.73-6.58,10.06-.19.29-.51.45-.83.45Zm12.93-20.21c-.18,0-.36-.05-.52-.15-.47-.29-.62-.9-.33-1.38,2.08-3.4,4.15-6.86,6.15-10.28.28-.47.89-.64,1.37-.36.48.28.64.89.36,1.37-2,3.43-4.08,6.9-6.17,10.31-.19.31-.52.48-.85.48Zm12.1-20.72c-.16,0-.33-.04-.49-.13-.48-.27-.66-.88-.39-1.36,1.94-3.48,3.86-7.02,5.72-10.52.26-.49.87-.67,1.35-.42s.67.86.42,1.35c-1.87,3.52-3.79,7.07-5.74,10.56-.18.33-.52.51-.88.51Zm11.23-21.2c-.15,0-.3-.03-.45-.11-.49-.25-.69-.85-.44-1.34,1.79-3.55,3.56-7.17,5.27-10.76.24-.5.83-.71,1.33-.47.5.24.71.83.47,1.33-1.71,3.6-3.49,7.23-5.29,10.79-.18.35-.53.55-.89.55Zm10.32-21.66c-.14,0-.28-.03-.41-.09-.5-.23-.73-.82-.5-1.32,1.63-3.63,3.25-7.32,4.8-10.97.22-.51.8-.74,1.31-.53.51.22.75.8.53,1.31-1.56,3.67-3.17,7.37-4.81,11.01-.17.37-.53.59-.91.59Zm9.37-22.09c-.12,0-.25-.02-.37-.07-.51-.2-.76-.79-.56-1.3,1.48-3.71,2.92-7.47,4.3-11.17.19-.52.77-.78,1.29-.59.52.19.78.77.59,1.29-1.38,3.72-2.84,7.49-4.32,11.22-.16.39-.53.63-.93.63Zm8.35-22.44c-.11,0-.22-.02-.33-.06-.52-.18-.8-.75-.62-1.27,1.29-3.72,2.57-7.53,3.78-11.32.17-.53.73-.81,1.26-.65.53.17.82.73.65,1.26-1.22,3.8-2.5,7.62-3.8,11.36-.14.41-.53.67-.94.67Zm7.32-22.77c-.09,0-.19-.01-.28-.04-.53-.16-.83-.71-.67-1.24,1.13-3.8,2.22-7.67,3.26-11.49.14-.53.69-.85,1.23-.7.53.14.85.69.7,1.23-1.04,3.84-2.14,7.72-3.27,11.54-.13.43-.53.72-.96.72Zm6.27-23.11c-.08,0-.16,0-.24-.03-.54-.13-.86-.67-.73-1.21.95-3.85,1.86-7.77,2.72-11.65.12-.54.65-.88,1.19-.76.54.12.88.65.76,1.19-.86,3.9-1.78,7.83-2.73,11.7-.11.46-.52.76-.97.76Zm5.18-23.42c-.06,0-.13,0-.19-.02-.54-.11-.9-.63-.79-1.17.77-3.93,1.5-7.89,2.17-11.79.09-.54.61-.91,1.15-.82.54.09.91.61.82,1.15-.67,3.91-1.4,7.89-2.18,11.83-.09.48-.51.81-.98.81Zm4.07-23.67s-.1,0-.15-.01c-.55-.08-.92-.59-.84-1.14.58-3.93,1.12-7.93,1.61-11.89.07-.55.54-.95,1.11-.87.55.07.94.57.87,1.11-.49,3.97-1.03,7.99-1.61,11.94-.07.5-.5.85-.99.85Zm2.93-23.88s-.07,0-.1,0c-.55-.05-.95-.54-.9-1.09.39-3.95.74-7.96,1.03-11.93.04-.55.5-.97,1.07-.92.55.04.96.52.92,1.07-.3,3.98-.64,8.01-1.04,11.97-.05.52-.49.9-.99.9Zm1.78-23.92s-.03,0-.05,0c-.55-.03-.98-.5-.95-1.05.2-3.96.35-7.98.46-11.96.01-.55.48-.99,1.03-.97.55.01.99.47.97,1.03-.11,3.99-.26,8.03-.46,12.01-.03.53-.47.95-1,.95Zm.63-23.98h0c-.55,0-1-.45-1-1v-1.27c0-3.57-.04-7.18-.11-10.71-.01-.55.43-1.01.98-1.02.55-.03,1.01.43,1.02.98.08,3.55.11,7.16.12,10.75v1.27c0,.55-.45,1-1,1Zm-.51-23.97c-.53,0-.97-.42-1-.95-.18-3.95-.41-7.97-.68-11.93-.04-.55.38-1.03.93-1.07.54-.02,1.03.38,1.07.93.28,3.98.51,8.01.69,11.98.03.55-.4,1.02-.95,1.04-.01,0-.03,0-.05,0Zm-1.66-23.9c-.51,0-.95-.39-1-.91-.37-3.95-.79-7.96-1.25-11.89-.06-.55.33-1.04.88-1.11.56-.07,1.05.33,1.11.88.46,3.95.89,7.97,1.26,11.94.05.55-.35,1.04-.9,1.09-.03,0-.06,0-.09,0Zm-2.8-23.8c-.49,0-.92-.36-.99-.86-.56-3.95-1.17-7.92-1.82-11.82-.09-.54.28-1.06.82-1.15.56-.09,1.06.28,1.15.82.65,3.91,1.27,7.91,1.83,11.87.08.55-.3,1.05-.85,1.13-.05,0-.09,0-.14,0Zm-3.93-23.65c-.47,0-.89-.33-.98-.81-.74-3.89-1.54-7.84-2.38-11.73-.12-.54.23-1.07.77-1.19.55-.12,1.07.23,1.19.77.84,3.91,1.65,7.87,2.39,11.77.1.54-.25,1.07-.79,1.17-.06.01-.13.02-.19.02Zm-5.06-23.44c-.45,0-.86-.31-.97-.77-.93-3.88-1.92-7.78-2.94-11.61-.14-.53.18-1.08.71-1.22.54-.14,1.08.18,1.22.71,1.02,3.84,2.01,7.76,2.95,11.65.13.54-.2,1.08-.74,1.21-.08.02-.16.03-.24.03Zm-6.16-23.19c-.43,0-.83-.28-.96-.72-1.11-3.81-2.28-7.66-3.48-11.46-.17-.53.12-1.09.65-1.25.53-.17,1.09.13,1.25.65,1.2,3.81,2.38,7.68,3.49,11.51.15.53-.15,1.09-.68,1.24-.09.03-.19.04-.28.04Zm-7.23-22.89c-.42,0-.8-.26-.95-.68-1.28-3.75-2.63-7.55-4-11.29-.19-.52.08-1.09.59-1.28.52-.19,1.09.08,1.28.59,1.38,3.76,2.73,7.57,4.01,11.34.18.52-.1,1.09-.62,1.27-.11.04-.22.05-.32.05Zm-8.27-22.54c-.4,0-.78-.24-.93-.63-1.46-3.72-2.97-7.45-4.5-11.11-.21-.51.03-1.1.54-1.31.51-.21,1.09.03,1.31.54,1.54,3.67,3.06,7.42,4.52,11.15.2.51-.05,1.09-.57,1.3-.12.05-.24.07-.37.07Zm-9.27-22.15c-.38,0-.75-.22-.91-.59-1.61-3.62-3.29-7.29-4.99-10.9-.24-.5-.02-1.1.48-1.33.5-.24,1.1-.02,1.33.48,1.71,3.62,3.39,7.3,5.01,10.94.22.5,0,1.1-.51,1.32-.13.06-.27.09-.41.09Zm-10.23-21.73c-.37,0-.72-.2-.9-.55-1.77-3.56-3.61-7.15-5.46-10.68-.26-.49-.07-1.09.42-1.35.49-.26,1.09-.07,1.35.42,1.86,3.54,3.7,7.14,5.48,10.72.25.49.04,1.09-.45,1.34-.14.07-.29.1-.44.1Zm-11.16-21.28c-.35,0-.69-.19-.88-.52-1.92-3.48-3.91-7-5.9-10.44-.28-.48-.11-1.09.36-1.37.48-.28,1.09-.11,1.37.36,2,3.46,4,6.98,5.92,10.48.27.48.09,1.09-.39,1.36-.15.08-.32.12-.48.12Zm-12.04-20.8c-.34,0-.67-.17-.86-.48-2.07-3.42-4.2-6.85-6.32-10.2-.3-.47-.16-1.08.31-1.38.47-.29,1.08-.16,1.38.31,2.13,3.36,4.27,6.8,6.35,10.23.29.47.14,1.09-.34,1.37-.16.1-.34.14-.52.14Zm-12.87-20.3c-.32,0-.64-.16-.83-.45-2.21-3.33-4.47-6.67-6.73-9.94-.31-.45-.2-1.08.25-1.39s1.08-.2,1.39.25c2.26,3.28,4.53,6.63,6.75,9.97.3.46.18,1.08-.28,1.39-.17.11-.36.17-.55.17Zm-13.66-19.78c-.31,0-.62-.14-.81-.42-2.32-3.22-4.71-6.48-7.1-9.68-.33-.44-.24-1.07.2-1.4.44-.33,1.07-.24,1.4.2,2.4,3.21,4.8,6.48,7.13,9.71.32.45.22,1.07-.23,1.4-.18.13-.38.19-.58.19Zm-14.41-19.25c-.3,0-.59-.13-.79-.39-2.45-3.14-4.96-6.31-7.46-9.41-.35-.43-.28-1.06.15-1.41.43-.35,1.06-.28,1.41.15,2.51,3.11,5.03,6.28,7.49,9.44.34.44.26,1.06-.17,1.4-.18.14-.4.21-.61.21Zm-15.12-18.71c-.29,0-.57-.12-.77-.36-2.56-3.06-5.19-6.13-7.8-9.13-.36-.42-.32-1.05.1-1.41.42-.36,1.05-.32,1.41.1,2.62,3.01,5.25,6.09,7.82,9.16.35.42.3,1.05-.12,1.41-.19.16-.42.23-.64.23Z"/>
        <path class="cls-6" d="m1021.78,345.43c-.41,0-.79-.25-.94-.65-.19-.52.07-1.09.59-1.29,3.71-1.38,7.5-2.77,11.26-4.12.52-.19,1.09.08,1.28.6.19.52-.08,1.09-.6,1.28-3.76,1.35-7.54,2.73-11.24,4.11-.12.04-.23.06-.35.06Zm22.54-8.1c-.41,0-.8-.26-.94-.67-.18-.52.1-1.09.62-1.27,3.73-1.29,7.55-2.59,11.35-3.86.52-.17,1.09.11,1.27.63.18.52-.11,1.09-.63,1.27-3.79,1.27-7.61,2.56-11.33,3.85-.11.04-.22.06-.33.06Zm22.72-7.59c-.42,0-.82-.27-.95-.69-.17-.53.12-1.09.65-1.26,3.77-1.21,7.61-2.42,11.44-3.6.53-.16,1.09.13,1.25.66.16.53-.13,1.09-.66,1.25-3.81,1.18-7.65,2.39-11.41,3.6-.1.03-.2.05-.31.05Zm22.89-7.07c-.43,0-.83-.28-.96-.72-.16-.53.14-1.09.67-1.24,3.82-1.14,7.66-2.25,11.51-3.35.53-.15,1.08.16,1.24.69.15.53-.16,1.08-.69,1.24-3.84,1.09-7.67,2.21-11.49,3.34-.1.03-.19.04-.29.04Zm23.04-6.56c-.44,0-.84-.29-.96-.74-.15-.53.17-1.08.7-1.23,3.85-1.05,7.71-2.08,11.58-3.09.53-.14,1.08.18,1.22.71.14.53-.18,1.08-.71,1.22-3.87,1.01-7.72,2.04-11.56,3.09-.09.02-.18.04-.26.04Zm604.85-1.33c-.09,0-.17-.01-.26-.03-3.85-1.03-7.72-2.04-11.6-3.04-.54-.14-.86-.68-.72-1.22.14-.54.68-.86,1.22-.72,3.89,1,7.76,2.01,11.62,3.04.53.14.85.69.71,1.22-.12.45-.52.74-.96.74Zm-581.67-4.72c-.45,0-.86-.3-.97-.76-.13-.54.19-1.08.73-1.21,3.87-.97,7.75-1.91,11.65-2.84.53-.13,1.08.2,1.2.74.13.54-.2,1.08-.74,1.2-3.89.93-7.76,1.87-11.63,2.83-.08.02-.16.03-.24.03Zm558.41-1.23c-.08,0-.16,0-.24-.03-3.88-.95-7.77-1.88-11.67-2.79-.54-.13-.87-.66-.75-1.2.12-.54.66-.87,1.2-.75,3.91.91,7.81,1.84,11.69,2.79.54.13.87.67.73,1.21-.11.46-.52.76-.97.76Zm-535.1-4.31c-.46,0-.87-.31-.97-.78-.12-.54.22-1.07.75-1.2,3.89-.88,7.79-1.74,11.71-2.59.54-.11,1.07.23,1.19.77.12.54-.23,1.07-.77,1.19-3.91.84-7.8,1.7-11.68,2.58-.07.02-.15.02-.22.02Zm511.71-1.14c-.07,0-.14,0-.22-.02-3.9-.86-7.81-1.71-11.73-2.53-.54-.11-.89-.64-.77-1.18.11-.54.65-.89,1.18-.77,3.93.83,7.84,1.67,11.75,2.54.54.12.88.65.76,1.19-.1.47-.52.78-.98.78Zm-488.29-3.9c-.47,0-.88-.33-.98-.8-.11-.54.24-1.07.78-1.18,3.91-.8,7.83-1.58,11.76-2.34.54-.11,1.07.25,1.17.79.1.54-.25,1.07-.79,1.17-3.92.76-7.84,1.54-11.74,2.33-.07.01-.13.02-.2.02Zm464.79-1.04c-.06,0-.13,0-.2-.02-3.92-.78-7.84-1.54-11.78-2.28-.54-.1-.9-.62-.8-1.17.1-.54.62-.9,1.17-.8,3.94.74,7.88,1.51,11.8,2.29.54.11.89.63.79,1.18-.09.48-.51.8-.98.8Zm-441.26-3.5c-.47,0-.9-.34-.98-.82-.1-.54.26-1.06.8-1.16,3.92-.72,7.86-1.41,11.81-2.09.55-.09,1.06.27,1.15.82.09.54-.27,1.06-.82,1.15-3.94.68-7.87,1.37-11.79,2.09-.06.01-.12.02-.18.02Zm417.66-.95c-.06,0-.12,0-.18-.02-3.93-.7-7.87-1.38-11.83-2.03-.54-.09-.91-.61-.82-1.15.09-.54.61-.91,1.15-.82,3.96.66,7.91,1.34,11.85,2.04.54.1.91.62.81,1.16-.09.48-.51.83-.98.83Zm-394.05-3.1c-.48,0-.91-.35-.99-.84-.09-.55.28-1.06.83-1.15,3.94-.63,7.89-1.25,11.85-1.84.54-.09,1.06.29,1.14.84.08.55-.29,1.06-.84,1.14-3.95.59-7.89,1.21-11.83,1.84-.05,0-.11.01-.16.01Zm370.35-.84c-.05,0-.1,0-.16-.01-3.95-.62-7.9-1.21-11.87-1.79-.55-.08-.93-.59-.85-1.13.08-.55.58-.92,1.13-.85,3.97.58,7.93,1.17,11.89,1.79.55.09.92.6.83,1.14-.08.49-.5.85-.99.85Zm-346.66-2.71c-.49,0-.92-.36-.99-.86-.08-.55.31-1.05.85-1.13,3.95-.55,7.91-1.08,11.88-1.59.55-.07,1.05.32,1.12.86.07.55-.32,1.05-.86,1.12-3.96.51-7.92,1.04-11.86,1.59-.05,0-.09,0-.14,0Zm322.89-.74s-.09,0-.13,0c-3.96-.53-7.92-1.05-11.9-1.54-.55-.07-.94-.57-.87-1.12.07-.55.57-.94,1.12-.87,3.98.49,7.96,1.01,11.92,1.54.55.07.93.58.86,1.12-.07.5-.5.87-.99.87Zm-299.13-2.32c-.5,0-.93-.37-.99-.88-.06-.55.33-1.05.88-1.11,3.96-.47,7.93-.92,11.91-1.35.54-.06,1.04.34,1.1.89.06.55-.34,1.04-.89,1.1-3.97.43-7.94.88-11.89,1.35-.04,0-.08,0-.12,0Zm275.29-.64s-.08,0-.11,0c-3.97-.45-7.95-.88-11.93-1.3-.55-.06-.95-.55-.89-1.1.06-.55.54-.96,1.1-.89,3.99.41,7.98.84,11.95,1.3.55.06.94.56.88,1.11-.06.51-.49.89-.99.89Zm-251.47-1.94c-.51,0-.94-.39-.99-.9-.05-.55.35-1.04.9-1.09,3.97-.39,7.95-.76,11.94-1.11.55-.06,1.04.36,1.08.91.05.55-.36,1.04-.91,1.08-3.98.35-7.95.72-11.92,1.1-.03,0-.07,0-.1,0Zm227.58-.53s-.06,0-.09,0c-3.98-.37-7.96-.72-11.96-1.05-.55-.05-.96-.53-.91-1.08.04-.55.53-.96,1.08-.91,4,.33,7.99.68,11.98,1.05.55.05.95.54.9,1.09-.05.52-.48.91-1,.91Zm-203.71-1.56c-.52,0-.96-.4-1-.92-.04-.55.37-1.03.92-1.07,3.98-.31,7.96-.6,11.96-.86.55-.02,1.03.38,1.06.93.04.55-.38,1.03-.93,1.07-3.99.27-7.97.56-11.94.86-.03,0-.05,0-.08,0Zm179.77-.42s-.05,0-.07,0c-3.98-.29-7.98-.56-11.97-.81-.55-.03-.97-.51-.94-1.06.03-.55.5-.97,1.06-.94,4.01.25,8,.52,11.99.81.55.04.97.52.93,1.07-.04.53-.48.93-1,.93Zm-155.87-1.18c-.53,0-.97-.41-1-.94-.03-.55.39-1.02.94-1.06,3.98-.23,7.97-.44,11.97-.62.52-.02,1.02.4,1.05.95.03.55-.4,1.02-.95,1.05-3.99.19-7.98.4-11.95.62-.02,0-.04,0-.06,0Zm131.9-.31s-.04,0-.05,0c-3.99-.21-7.99-.4-11.99-.57-.55-.02-.98-.49-.96-1.04.02-.55.5-.97,1.04-.96,4.01.17,8.01.36,12.01.57.55.03.98.5.95,1.05-.03.53-.47.95-1,.95Zm-107.97-.81c-.54,0-.98-.42-1-.96-.02-.55.41-1.02.96-1.04,3.99-.15,7.98-.28,11.98-.39.56,0,1.01.42,1.03.97.02.55-.42,1.01-.97,1.03-3.99.11-7.98.24-11.96.39-.01,0-.03,0-.04,0Zm83.97-.2s-.02,0-.03,0c-3.99-.13-7.99-.24-12-.33-.55-.01-.99-.47-.98-1.02.01-.54.46-.98,1-.98,0,0,.02,0,.02,0,4.01.09,8.02.2,12.02.33.55.02.99.48.97,1.03-.02.54-.46.97-1,.97Zm-60.02-.45c-.54,0-.99-.44-1-.98,0-.55.43-1.01.98-1.02,3.99-.07,7.99-.12,12-.15.55-.03,1,.44,1.01.99,0,.55-.44,1-.99,1.01-4,.03-7.99.08-11.98.15h-.02Zm36-.09h-.01c-3.99-.05-7.99-.08-12-.09-.55,0-1-.45-1-1,0-.55.45-1,1-1h0c4.01.01,8.02.04,12.02.09.55,0,.99.46.99,1.01,0,.55-.45.99-1,.99Z"/>
        <g>
          <circle class="cls-8" cx="2130.97" cy="1332.13" r="28.69"/>
          <circle class="cls-8" cx="1002.85" cy="1518.37" r="28.69"/>
          <circle class="cls-8" cx="530.67" cy="875.07" r="28.69"/>
          <circle class="cls-8" cx="1319.47" cy="275.03" r="28.69"/>
        </g>
      </g>
      <g>
        <path class="cls-1" d="m479.61,684.93c-81.33-5.08-98.34,62.8-179.67,57.73,0-83.2-28.88-177.65-28.88-260.85,58.3,10.15,145.47-6.55,203.77-17.98,23.04,69.6-18.25,142.98,4.78,221.11Z"/>
        <path class="cls-5" d="m297.81,532.66c20.37-2.04,40.66-4.82,60.82-8.36,20.19-3.54,40.25-7.82,60.12-12.85,11.22-2.84,22.38-5.92,33.47-9.22,1.85-.55,1.06-3.45-.8-2.89-19.57,5.83-39.34,10.94-59.29,15.31-19.86,4.35-39.89,7.97-60.02,10.85-11.4,1.63-22.84,3.01-34.31,4.16-1.9.19-1.92,3.19,0,3h0Z"/>
        <path class="cls-5" d="m306.59,576.72c19.72-3.06,39.35-6.76,58.83-11.12,19.48-4.35,38.81-9.35,57.96-14.98,10.77-3.16,21.47-6.53,32.11-10.09,1.82-.61,1.04-3.51-.8-2.89-18.93,6.33-38.06,12.05-57.37,17.12-19.3,5.07-38.77,9.51-58.37,13.29-11.02,2.13-22.08,4.05-33.17,5.77-1.9.3-1.09,3.19.8,2.89h0Z"/>
        <path class="cls-5" d="m314.29,620.26c19.13-4.82,38.21-9.82,57.24-15.02,19.03-5.19,38.01-10.57,56.93-16.14,10.72-3.15,21.43-6.37,32.12-9.64,1.84-.56,1.06-3.46-.8-2.89-18.86,5.78-37.78,11.37-56.75,16.77-18.97,5.41-38,10.62-57.07,15.65-10.81,2.85-21.63,5.64-32.47,8.37-1.87.47-1.08,3.37.8,2.89h0Z"/>
        <path class="cls-5" d="m315.67,660.51c19.18-4.29,38.21-9.24,57.05-14.87,18.83-5.63,37.47-11.92,55.85-18.86,10.35-3.91,20.62-8.03,30.82-12.35.75-.32.9-1.41.54-2.05-.44-.78-1.31-.85-2.05-.54-18.05,7.64-36.38,14.63-54.93,20.98-18.45,6.31-37.12,11.97-55.96,16.97-10.65,2.82-21.35,5.43-32.1,7.84-1.88.42-1.09,3.31.8,2.89h0Z"/>
        <path class="cls-5" d="m323.64,707.27c16.1-10.3,33.33-18.81,51.3-25.31,17.89-6.48,36.5-11.05,55.36-13.49,10.67-1.38,21.41-2.09,32.17-2.13,1.93,0,1.93-3.01,0-3-19.3.08-38.58,2.32-57.4,6.63-18.81,4.3-37.14,10.69-54.57,18.97-9.78,4.65-19.26,9.91-28.38,15.75-1.62,1.04-.12,3.63,1.51,2.59h0Z"/>
      </g>
      <g>
        <path class="cls-1" d="m1115.33,269.9c-33.29-43.13-106.51-48.39-139.8-91.52,41.84-36.67,90.98-141.71,132.82-178.38,20.59,33.79,84.18,89.14,115.62,113.42-24.85,42.26-79.51,110.47-108.64,156.49Z"/>
        <path class="cls-5" d="m1097.77,34.83c13.61,8.07,23.14,21.04,33.47,32.69,10.85,12.23,23.24,23.05,36.85,32.1,7.66,5.1,15.69,9.61,24.01,13.53,1.74.82,3.26-1.77,1.51-2.59-14.78-6.96-28.66-15.83-41.12-26.41-6.24-5.3-12.13-11-17.62-17.07-5.31-5.87-10.27-12.03-15.62-17.86-5.93-6.46-12.39-12.5-19.97-16.99-1.66-.99-3.18,1.61-1.51,2.59h0Z"/>
        <path class="cls-5" d="m1077.35,62.79c15.01,8.07,26.79,20.86,39.76,31.67,13.34,11.12,27.49,21.28,42.32,30.34,8.34,5.1,16.9,9.85,25.64,14.24,1.72.86,3.24-1.72,1.51-2.59-15.47-7.78-30.38-16.68-44.55-26.64-7.16-5.03-14.14-10.33-20.9-15.89-6.61-5.44-12.91-11.21-19.33-16.87-7.12-6.28-14.54-12.33-22.93-16.84-1.7-.91-3.22,1.67-1.51,2.59h0Z"/>
        <path class="cls-5" d="m1056.96,95.98c28.01,16.77,56.02,33.53,84.03,50.3,7.86,4.7,15.72,9.41,23.58,14.11,1.66.99,3.17-1.6,1.51-2.59-28.01-16.77-56.02-33.53-84.03-50.3-7.86-4.7-15.72-9.41-23.58-14.11-1.66-.99-3.17,1.6-1.51,2.59h0Z"/>
        <path class="cls-5" d="m1039.43,123.03c7.68,4,15.11,8.48,22.58,12.86,7.07,4.15,14.13,8.33,21.13,12.61,14.02,8.58,27.81,17.59,40.87,27.6,7.33,5.62,14.41,11.58,21.14,17.91,1.41,1.32,3.53-.8,2.12-2.12-12.01-11.28-25.11-21.34-38.72-30.62-13.67-9.32-27.86-17.87-42.12-26.26-8.43-4.96-16.82-10.05-25.5-14.57-1.71-.89-3.23,1.7-1.51,2.59h0Z"/>
        <path class="cls-5" d="m1019.19,148.48c14.08,6.73,27.25,15.14,40.25,23.72,13,8.57,25.9,17.35,39.57,24.84,7.66,4.19,15.55,7.95,23.72,11.03,1.81.68,2.59-2.22.8-2.89-14.42-5.45-27.85-13.11-40.84-21.35-13.13-8.32-25.86-17.25-39.11-25.37-7.42-4.55-15.01-8.82-22.86-12.58-1.73-.83-3.26,1.76-1.51,2.59h0Z"/>
        <path class="cls-5" d="m1003.95,179.89c14.8,2.64,29.29,7.05,43,13.21,14.06,6.32,27.01,14.62,39.79,23.17,7.71,5.16,15.41,10.32,23.12,15.49,1.61,1.08,3.11-1.52,1.51-2.59-13.5-9.04-26.84-18.41-40.72-26.86-12.99-7.91-26.73-14.44-41.2-19.14-8.08-2.62-16.33-4.67-24.69-6.17-1.89-.34-2.7,2.55-.8,2.89h0Z"/>
      </g>
      <g>
        <path class="cls-3" d="m1045.14,1189.59c-52.67-26.83-126.66-23.56-191.04-33.87,25.73-74.62,52.83-151.18,82.98-232.05,42.74,37.03,105.22,46.18,159.88,66.38-15.07,63.4-31.6,128.86-51.83,199.53Z"/>
        <path class="cls-5" d="m939.08,966.69c15.87,7.6,31.78,15.14,48.14,21.62,16.21,6.42,32.92,11.8,50.12,14.79,9.66,1.68,19.44,2.61,29.25,2.61,1.93,0,1.93-3,0-3-17.2.01-34.22-2.94-50.72-7.68-16.7-4.8-32.84-11.34-48.67-18.47-8.93-4.02-17.78-8.24-26.61-12.46-1.73-.83-3.26,1.76-1.51,2.59h0Z"/>
        <path class="cls-5" d="m928.57,995.92c17.88,2.93,35.32,7.97,52.69,13.05,17.24,5.04,34.51,10.17,52.22,13.29,9.96,1.75,20.04,2.86,30.16,2.98,1.93.02,1.93-2.98,0-3-17.87-.21-35.46-3.58-52.71-8.04-17.4-4.49-34.51-10.03-51.88-14.64-9.8-2.6-19.68-4.89-29.68-6.54-1.89-.31-2.7,2.58-.8,2.89h0Z"/>
        <path class="cls-5" d="m917.44,1023.73c17.75,6.07,35.67,12.13,54.42,14.1,9.51,1,19.09.99,28.64,1.28,9.69.3,19.37.87,29.03,1.73,10.92.96,21.8,2.29,32.63,3.96,1.89.29,2.7-2.6.8-2.89-19.13-2.96-38.43-4.86-57.78-5.63-9.56-.38-19.14-.33-28.68-1.04-9.45-.7-18.76-2.44-27.92-4.85-10.26-2.69-20.3-6.12-30.34-9.55-1.83-.63-2.62,2.27-.8,2.89h0Z"/>
        <path class="cls-5" d="m1060.03,1057.99c-18.13-2.95-36.39-5.15-54.71-6.56-18.27-1.41-36.59-2.03-54.91-1.88-10.39.09-20.77.43-31.14,1.02-1.92.11-1.93,3.11,0,3,18.21-1.03,36.46-1.3,54.69-.79,18.23.51,36.44,1.8,54.56,3.86,10.27,1.17,20.51,2.59,30.71,4.25,1.89.31,2.7-2.58.8-2.89h0Z"/>
        <path class="cls-5" d="m899.68,1072.48c20.34-.88,40.7-.98,61.04-.3,20.18.68,40.33,2.12,60.4,4.33,11.45,1.26,22.87,2.78,34.26,4.54,1.89.29,2.7-2.6.8-2.89-20.17-3.12-40.45-5.48-60.79-7.05-20.37-1.57-40.81-2.36-61.25-2.37-11.49,0-22.98.25-34.46.75-1.92.08-1.93,3.08,0,3h0Z"/>
        <path class="cls-5" d="m1045.98,1111.72c-15.57-9.66-33-15.99-50.84-19.9-19.06-4.18-38.61-5.64-58.08-6.05-11.53-.25-23.06-.13-34.59-.02-1.93.02-1.93,3.02,0,3,20.07-.2,40.19-.4,60.21,1.31,18.43,1.57,36.8,4.84,54.26,11.08,9.6,3.43,18.86,7.79,27.52,13.17,1.65,1.02,3.15-1.57,1.51-2.59h0Z"/>
        <path class="cls-5" d="m889.94,1117.8c18.67.05,37.34.57,55.99,1.55,18.65.98,37.27,2.43,55.84,4.35,10.52,1.08,21.02,2.32,31.51,3.7.81.11,1.49-.77,1.5-1.5,0-.9-.7-1.39-1.5-1.5-18.51-2.44-37.08-4.42-55.69-5.93-18.61-1.51-37.26-2.56-55.92-3.14-10.57-.33-21.14-.5-31.72-.53-1.93,0-1.93,2.99,0,3h0Z"/>
        <path class="cls-5" d="m877.27,1144.09c20.28-.71,40.59-.6,60.86.35,20.27.94,40.51,2.71,60.63,5.31,11.39,1.47,22.75,3.21,34.06,5.21,1.89.33,2.7-2.56.8-2.89-20.12-3.55-40.38-6.28-60.72-8.19-20.29-1.9-40.65-2.96-61.03-3.19-11.54-.13-23.08,0-34.61.41-1.93.07-1.93,3.07,0,3h0Z"/>
      </g>
      <g>
        <path class="cls-3" d="m2450.84,1524.16c-66.48,0-132.96,79.7-199.44,79.7v-284.65c66.48,0,132.96-79.7,199.44-79.7v284.65Z"/>
        <path class="cls-5" d="m2268.95,1349.73c23.55-.98,46.01-9.18,66.82-19.82,21.28-10.88,41.01-24.43,61.6-36.5,11.64-6.82,23.57-13.2,36.09-18.27,1.77-.72.99-3.62-.8-2.89-22.17,8.98-42.4,21.81-62.66,34.37-19.99,12.39-40.36,24.63-62.68,32.4-12.38,4.31-25.26,7.17-38.38,7.72-1.92.08-1.93,3.08,0,3h0Z"/>
        <path class="cls-5" d="m2269.1,1373.83c12.72-.51,25.49-1.04,38.05-3.21,11.41-1.97,22.32-5.58,32.72-10.65,19.36-9.45,36.38-22.85,54.61-34.19,10.16-6.32,20.75-12.04,32.11-15.91,1.82-.62,1.04-3.52-.8-2.89-20.37,6.94-38.04,19.45-55.75,31.35-8.82,5.93-17.73,11.76-27.13,16.73-9.82,5.19-20.13,9.23-31.01,11.59-14.05,3.04-28.48,3.61-42.8,4.18-1.92.08-1.93,3.08,0,3h0Z"/>
        <path class="cls-5" d="m2272.7,1412.01c21.26-.35,41.28-8.53,59.79-18.37,18.69-9.93,36.32-21.83,55.69-30.46,10.72-4.77,22.02-8.48,33.68-9.98,1.89-.24,1.91-3.25,0-3-20.96,2.69-40.13,11.98-58.33,22.26-18.46,10.44-36.41,22.1-56.39,29.53-11.05,4.11-22.63,6.82-34.45,7.01-1.93.03-1.93,3.03,0,3h0Z"/>
        <path class="cls-5" d="m2275.78,1456.55c19.27-13.42,39.27-25.78,59.89-37,20.64-11.23,41.9-21.33,63.66-30.21,12.26-5,24.68-9.62,37.23-13.86,1.82-.61,1.04-3.51-.8-2.89-22.37,7.55-44.32,16.33-65.73,26.29-21.42,9.97-42.3,21.12-62.49,33.4-11.32,6.88-22.42,14.12-33.29,21.68-1.57,1.1-.08,3.7,1.51,2.59h0Z"/>
        <path class="cls-5" d="m2429.83,1396.07c-22.07,9.69-42.56,22.5-62.67,35.69-20.01,13.12-39.78,26.69-60.83,38.13-11.8,6.41-23.98,12.12-36.65,16.61-1.81.64-1.03,3.54.8,2.89,22.7-8.03,43.75-19.88,64.04-32.72,20.39-12.9,40.13-26.81,60.85-39.18,11.63-6.94,23.56-13.38,35.97-18.83,1.76-.77.24-3.36-1.51-2.59h0Z"/>
        <path class="cls-5" d="m2272.47,1523.82c19.79-15.68,39.6-31.34,60.01-46.21,20.32-14.8,41.25-28.82,63.19-41.11,12.39-6.94,25.09-13.31,38.12-18.96,1.77-.77.24-3.35-1.51-2.59-23.18,10.05-45.29,22.41-66.51,36.09-21.31,13.75-41.74,28.8-61.82,44.28-11.27,8.7-22.44,17.53-33.6,26.37-1.51,1.2.62,3.31,2.12,2.12h0Z"/>
        <path class="cls-5" d="m2275.84,1549.13c20.09-10.69,39.94-21.85,59.5-33.48,19.43-11.55,38.59-23.56,57.45-36.01,10.68-7.05,21.27-14.25,31.77-21.59,1.57-1.1.07-3.7-1.51-2.59-18.65,13.04-37.61,25.64-56.87,37.79-19.12,12.06-38.52,23.67-58.18,34.81-11.14,6.31-22.36,12.47-33.67,18.48-1.71.91-.19,3.5,1.51,2.59h0Z"/>
        <path class="cls-5" d="m2276.33,1578.7c17.86-14.92,37.1-28.17,57.37-39.61,20.27-11.43,41.56-21.04,63.56-28.64,12.41-4.29,25.03-7.93,37.81-10.93,1.88-.44,1.08-3.33-.8-2.89-22.91,5.37-45.31,12.86-66.87,22.29-21.44,9.38-42.03,20.69-61.43,33.77-10.99,7.41-21.59,15.39-31.77,23.89-1.48,1.24.65,3.35,2.12,2.12h0Z"/>
      </g>
      <g>
        <path class="cls-1" d="m2506.48,350.11c-81.33-5.08-162.66,64-244,58.92v-249.6c58.3,10.15,116.59-17.8,174.89-29.23,23.04,69.6,46.07,141.78,69.11,219.91Z"/>
        <path class="cls-5" d="m2281.85,194.83c19.79,1.76,39.57-2.26,58.29-8.45,18.78-6.21,36.7-14.67,55.01-22.1,10.23-4.15,20.6-7.99,31.25-10.94,1.86-.52,1.07-3.41-.8-2.89-18.83,5.23-36.71,13.19-54.67,20.8-18.12,7.68-36.56,15.01-55.97,18.69-10.91,2.07-22.05,2.88-33.12,1.89-1.92-.17-1.91,2.83,0,3h0Z"/>
        <path class="cls-5" d="m2278.71,222.97c19.48.23,38.84-3.07,57.51-8.5,18.92-5.51,37.17-13.12,55.03-21.39,10.11-4.68,20.1-9.6,30.08-14.54,1.73-.86.21-3.44-1.51-2.59-17.54,8.68-35.13,17.31-53.27,24.68-17.91,7.27-36.4,13.34-55.48,16.67-10.68,1.87-21.52,2.81-32.37,2.68-1.93-.02-1.93,2.98,0,3h0Z"/>
        <path class="cls-5" d="m2281.39,253.65c21.71-5.99,43.33-12.29,64.85-18.9,21.52-6.61,42.95-13.53,64.28-20.76,12.05-4.09,24.07-8.27,36.06-12.55,1.81-.64,1.03-3.54-.8-2.89-21.2,7.57-42.52,14.85-63.93,21.81-21.41,6.96-42.93,13.61-64.53,19.95-12.21,3.58-24.45,7.07-36.72,10.45-1.86.51-1.07,3.41.8,2.89h0Z"/>
        <path class="cls-5" d="m2451.88,223.62c-22.35,6.95-44.57,14.3-66.66,22.04-22.09,7.74-44.04,15.87-65.83,24.38-12.22,4.77-24.39,9.67-36.51,14.68-1.76.73-.99,3.63.8,2.89,21.63-8.94,43.41-17.51,65.34-25.69,21.93-8.18,44-15.96,66.2-23.36,12.45-4.14,24.93-8.16,37.46-12.06,1.84-.57,1.05-3.47-.8-2.89h0Z"/>
        <path class="cls-5" d="m2276.81,316.92c21.34-13.16,43.99-24.17,67.53-32.82,23.51-8.64,47.88-14.97,72.63-18.84,13.99-2.18,28.11-3.55,42.26-4.13,1.92-.08,1.93-3.08,0-3-25.31,1.03-50.52,4.62-75.12,10.67-24.53,6.03-48.45,14.51-71.31,25.24-12.87,6.05-25.4,12.82-37.5,20.29-1.64,1.01-.14,3.61,1.51,2.59h0Z"/>
        <path class="cls-5" d="m2465.69,269.97c-25.83,5.35-51.29,12.45-76.16,21.24-24.85,8.78-49.11,19.22-72.57,31.24-13.2,6.77-26.14,14.04-38.79,21.79-1.64,1.01-.14,3.6,1.51,2.59,22.36-13.7,45.64-25.9,69.64-36.48,24.08-10.62,48.89-19.6,74.18-26.87,14.19-4.08,28.53-7.62,42.98-10.61,1.89-.39,1.09-3.28-.8-2.89h0Z"/>
        <path class="cls-5" d="m2285.79,370.98c20.65-12.83,43.11-22.36,66.04-30.3,23.57-8.16,47.64-14.82,71.59-21.77,14.46-4.19,28.92-8.39,43.37-12.58,1.85-.54,1.06-3.43-.8-2.89-25.41,7.37-50.85,14.66-76.24,22.14-23.38,6.89-46.69,14.23-69.08,23.94-12.55,5.44-24.78,11.65-36.41,18.87-1.64,1.02-.13,3.61,1.51,2.59h0Z"/>
        <path class="cls-5" d="m2290.72,387.08c24.97-1.41,48.72-9.97,71.48-19.81,22.26-9.63,43.92-20.68,66.58-29.36,12.69-4.86,25.68-8.95,39.02-11.58,1.89-.37,1.09-3.27-.8-2.89-23.65,4.67-46.03,13.92-67.91,23.82-22.24,10.07-44.2,21.07-67.46,28.62-13.27,4.31-26.96,7.43-40.91,8.21-1.92.11-1.93,3.11,0,3h0Z"/>
      </g>
    </g>
  </g>
</svg>