<?xml version="1.0" standalone="no"?>
<!DOCTYPE svg PUBLIC "-//W3C//DTD SVG 20010904//EN"
 "http://www.w3.org/TR/2001/REC-SVG-20010904/DTD/svg10.dtd">
<svg version="1.0" xmlns="http://www.w3.org/2000/svg"
 width="150.000000pt" height="150.000000pt" viewBox="0 0 150.000000 150.000000"
 preserveAspectRatio="xMidYMid meet">
<metadata>
Created by potrace 1.14, written by Peter Selinger 2001-2017
</metadata>
<g transform="translate(0.000000,150.000000) scale(0.100000,-0.100000)"
fill="#000000" stroke="none">
<path d="M710 1482 c-20 -16 -21 -25 -22 -181 0 -175 2 -184 53 -196 17 -4 33
0 48 12 22 18 23 24 22 183 0 156 -2 166 -22 183 -27 22 -51 22 -79 -1z"/>
<path d="M132 1290 c-42 -40 -32 -55 163 -250 102 -102 195 -199 206 -217 24
-39 27 -99 6 -139 -9 -16 -97 -110 -197 -209 -207 -205 -220 -225 -180 -265
44 -44 60 -33 270 177 120 121 206 216 220 243 16 31 24 65 26 111 5 110 -16
141 -245 371 -211 210 -224 219 -269 178z"/>
<path d="M1305 1300 c-11 -4 -106 -95 -212 -202 -204 -205 -233 -246 -235
-331 -1 -60 10 -105 37 -152 13 -22 111 -127 217 -232 153 -152 200 -193 220
-193 34 0 68 41 61 73 -3 12 -95 112 -204 223 -110 110 -200 208 -200 217 -1
9 -1 28 -1 42 0 14 0 35 1 46 1 14 75 96 202 225 216 217 228 236 179 276 -24
20 -35 21 -65 8z"/>
<path d="M73 812 c-65 -5 -93 -55 -55 -101 16 -21 25 -22 173 -23 93 0 165 4
177 11 44 23 35 95 -14 107 -28 7 -212 11 -281 6z"/>
<path d="M1202 810 c-58 -4 -77 -9 -88 -24 -35 -49 0 -96 74 -97 252 -3 276
-1 294 21 23 28 23 52 1 79 -16 19 -30 22 -113 24 -52 1 -128 0 -168 -3z"/>
<path d="M710 382 c-21 -17 -22 -25 -23 -181 0 -159 0 -165 22 -183 29 -23 53
-23 81 0 21 17 22 24 21 182 -1 155 -2 166 -22 183 -27 22 -51 22 -79 -1z"/>
</g>
</svg>
